<svg xmlns="http://www.w3.org/2000/svg" xmlns:xlink="http://www.w3.org/1999/xlink" width="64" zoomAndPan="magnify" viewBox="0 0 48 48" height="64" preserveAspectRatio="xMidYMid meet" version="1.0"><defs><clipPath id="150e781505"><path d="M 2.214844 1.726562 L 45.5625 1.726562 L 45.5625 45.074219 L 2.214844 45.074219 Z M 2.214844 1.726562 " clip-rule="nonzero"/></clipPath><clipPath id="58021df22d"><path d="M 12 10.070312 L 36 10.070312 L 36 27.703125 L 12 27.703125 Z M 12 10.070312 " clip-rule="nonzero"/></clipPath><clipPath id="d79a361cf4"><path d="M 15.625 21.367188 L 32.523438 21.367188 L 32.523438 33.859375 L 15.625 33.859375 Z M 15.625 21.367188 " clip-rule="nonzero"/></clipPath></defs><g clip-path="url(#150e781505)"><path fill="#000000" d="M 45.78125 23.507812 C 45.78125 24.222656 45.746094 24.933594 45.675781 25.644531 C 45.605469 26.355469 45.503906 27.058594 45.363281 27.757812 C 45.222656 28.457031 45.050781 29.148438 44.84375 29.832031 C 44.636719 30.515625 44.394531 31.1875 44.125 31.84375 C 43.851562 32.503906 43.546875 33.148438 43.210938 33.777344 C 42.871094 34.40625 42.507812 35.019531 42.109375 35.609375 C 41.714844 36.203125 41.289062 36.777344 40.835938 37.328125 C 40.382812 37.878906 39.90625 38.40625 39.402344 38.910156 C 38.898438 39.417969 38.367188 39.894531 37.816406 40.347656 C 37.265625 40.800781 36.695312 41.222656 36.101562 41.621094 C 35.507812 42.015625 34.894531 42.382812 34.265625 42.71875 C 33.636719 43.054688 32.992188 43.359375 32.335938 43.632812 C 31.675781 43.90625 31.003906 44.148438 30.320312 44.355469 C 29.640625 44.5625 28.949219 44.734375 28.25 44.871094 C 27.546875 45.011719 26.84375 45.117188 26.132812 45.1875 C 25.425781 45.257812 24.710938 45.292969 24 45.292969 C 23.285156 45.292969 22.574219 45.257812 21.863281 45.1875 C 21.152344 45.117188 20.449219 45.011719 19.75 44.871094 C 19.050781 44.734375 18.359375 44.5625 17.675781 44.355469 C 16.992188 44.148438 16.320312 43.90625 15.664062 43.632812 C 15.003906 43.359375 14.359375 43.054688 13.730469 42.71875 C 13.101562 42.382812 12.492188 42.015625 11.898438 41.621094 C 11.304688 41.222656 10.730469 40.800781 10.179688 40.347656 C 9.628906 39.894531 9.101562 39.417969 8.597656 38.910156 C 8.09375 38.40625 7.613281 37.878906 7.160156 37.328125 C 6.707031 36.777344 6.285156 36.203125 5.886719 35.609375 C 5.492188 35.019531 5.125 34.40625 4.789062 33.777344 C 4.453125 33.148438 4.148438 32.503906 3.875 31.84375 C 3.601562 31.1875 3.363281 30.515625 3.152344 29.832031 C 2.945312 29.148438 2.773438 28.457031 2.636719 27.757812 C 2.496094 27.058594 2.390625 26.355469 2.320312 25.644531 C 2.25 24.933594 2.214844 24.222656 2.214844 23.507812 C 2.214844 22.796875 2.25 22.082031 2.320312 21.375 C 2.390625 20.664062 2.496094 19.960938 2.636719 19.257812 C 2.773438 18.558594 2.945312 17.867188 3.152344 17.1875 C 3.363281 16.503906 3.601562 15.832031 3.875 15.171875 C 4.148438 14.515625 4.453125 13.871094 4.789062 13.242188 C 5.125 12.613281 5.492188 12 5.886719 11.40625 C 6.285156 10.8125 6.707031 10.242188 7.160156 9.691406 C 7.613281 9.140625 8.09375 8.609375 8.597656 8.105469 C 9.101562 7.601562 9.628906 7.125 10.179688 6.671875 C 10.730469 6.21875 11.304688 5.792969 11.898438 5.398438 C 12.492188 5 13.101562 4.636719 13.730469 4.296875 C 14.359375 3.960938 15.003906 3.65625 15.664062 3.382812 C 16.320312 3.113281 16.992188 2.871094 17.675781 2.664062 C 18.359375 2.457031 19.050781 2.285156 19.75 2.144531 C 20.449219 2.007812 21.152344 1.902344 21.863281 1.832031 C 22.574219 1.761719 23.285156 1.726562 24 1.726562 C 24.710938 1.726562 25.425781 1.761719 26.132812 1.832031 C 26.84375 1.902344 27.546875 2.007812 28.25 2.144531 C 28.949219 2.285156 29.640625 2.457031 30.320312 2.664062 C 31.003906 2.871094 31.675781 3.113281 32.335938 3.382812 C 32.992188 3.65625 33.636719 3.960938 34.265625 4.296875 C 34.894531 4.636719 35.507812 5 36.101562 5.398438 C 36.695312 5.792969 37.265625 6.21875 37.816406 6.671875 C 38.367188 7.125 38.898438 7.601562 39.402344 8.105469 C 39.90625 8.609375 40.382812 9.140625 40.835938 9.691406 C 41.289062 10.242188 41.714844 10.8125 42.109375 11.40625 C 42.507812 12 42.871094 12.613281 43.210938 13.242188 C 43.546875 13.871094 43.851562 14.515625 44.125 15.171875 C 44.394531 15.832031 44.636719 16.503906 44.84375 17.1875 C 45.050781 17.867188 45.222656 18.558594 45.363281 19.257812 C 45.503906 19.960938 45.605469 20.664062 45.675781 21.375 C 45.746094 22.082031 45.78125 22.796875 45.78125 23.507812 Z M 45.78125 23.507812 " fill-opacity="1" fill-rule="nonzero"/></g><g clip-path="url(#58021df22d)"><path fill="#a40202" d="M 23.996094 10.070312 L 35.988281 22.058594 L 35.988281 27.589844 L 23.996094 15.597656 L 12.007812 27.5625 L 12.007812 22.058594 L 23.996094 10.070312 " fill-opacity="1" fill-rule="nonzero"/></g><g clip-path="url(#d79a361cf4)"><path fill="#a40202" d="M 23.996094 21.367188 L 32.496094 29.867188 L 32.496094 33.785156 L 23.996094 25.289062 L 15.5 33.765625 L 15.5 29.867188 L 23.996094 21.367188 " fill-opacity="1" fill-rule="nonzero"/></g></svg>