<svg xmlns="http://www.w3.org/2000/svg" xmlns:xlink="http://www.w3.org/1999/xlink" width="64" zoomAndPan="magnify" viewBox="0 0 48 48" height="64" preserveAspectRatio="xMidYMid meet" version="1.0"><defs><clipPath id="fac09964ed"><path d="M 2.214844 1.726562 L 45.5625 1.726562 L 45.5625 45.074219 L 2.214844 45.074219 Z M 2.214844 1.726562 " clip-rule="nonzero"/></clipPath></defs><g clip-path="url(#fac09964ed)"><path fill="#000000" d="M 45.78125 23.507812 C 45.78125 24.222656 45.746094 24.933594 45.675781 25.644531 C 45.605469 26.355469 45.503906 27.058594 45.363281 27.757812 C 45.222656 28.457031 45.050781 29.148438 44.84375 29.832031 C 44.636719 30.515625 44.394531 31.1875 44.125 31.84375 C 43.851562 32.503906 43.546875 33.148438 43.210938 33.777344 C 42.871094 34.40625 42.507812 35.019531 42.109375 35.609375 C 41.714844 36.203125 41.289062 36.777344 40.835938 37.328125 C 40.382812 37.878906 39.90625 38.40625 39.402344 38.910156 C 38.898438 39.417969 38.367188 39.894531 37.816406 40.347656 C 37.265625 40.800781 36.695312 41.222656 36.101562 41.621094 C 35.507812 42.015625 34.894531 42.382812 34.265625 42.71875 C 33.636719 43.054688 32.992188 43.359375 32.335938 43.632812 C 31.675781 43.90625 31.003906 44.148438 30.320312 44.355469 C 29.640625 44.5625 28.949219 44.734375 28.25 44.871094 C 27.546875 45.011719 26.84375 45.117188 26.132812 45.1875 C 25.425781 45.257812 24.710938 45.292969 24 45.292969 C 23.285156 45.292969 22.574219 45.257812 21.863281 45.1875 C 21.152344 45.117188 20.449219 45.011719 19.75 44.871094 C 19.050781 44.734375 18.359375 44.5625 17.675781 44.355469 C 16.992188 44.148438 16.320312 43.90625 15.664062 43.632812 C 15.003906 43.359375 14.359375 43.054688 13.730469 42.71875 C 13.101562 42.382812 12.492188 42.015625 11.898438 41.621094 C 11.304688 41.222656 10.730469 40.800781 10.179688 40.347656 C 9.628906 39.894531 9.101562 39.417969 8.597656 38.910156 C 8.09375 38.40625 7.613281 37.878906 7.160156 37.328125 C 6.707031 36.777344 6.285156 36.203125 5.886719 35.609375 C 5.492188 35.019531 5.125 34.40625 4.789062 33.777344 C 4.453125 33.148438 4.148438 32.503906 3.875 31.84375 C 3.601562 31.1875 3.363281 30.515625 3.152344 29.832031 C 2.945312 29.148438 2.773438 28.457031 2.636719 27.757812 C 2.496094 27.058594 2.390625 26.355469 2.320312 25.644531 C 2.25 24.933594 2.214844 24.222656 2.214844 23.507812 C 2.214844 22.796875 2.25 22.082031 2.320312 21.375 C 2.390625 20.664062 2.496094 19.960938 2.636719 19.257812 C 2.773438 18.558594 2.945312 17.867188 3.152344 17.1875 C 3.363281 16.503906 3.601562 15.832031 3.875 15.171875 C 4.148438 14.515625 4.453125 13.871094 4.789062 13.242188 C 5.125 12.613281 5.492188 12 5.886719 11.40625 C 6.285156 10.8125 6.707031 10.242188 7.160156 9.691406 C 7.613281 9.140625 8.09375 8.609375 8.597656 8.105469 C 9.101562 7.601562 9.628906 7.125 10.179688 6.671875 C 10.730469 6.21875 11.304688 5.792969 11.898438 5.398438 C 12.492188 5 13.101562 4.636719 13.730469 4.296875 C 14.359375 3.960938 15.003906 3.65625 15.664062 3.382812 C 16.320312 3.113281 16.992188 2.871094 17.675781 2.664062 C 18.359375 2.457031 19.050781 2.285156 19.75 2.144531 C 20.449219 2.007812 21.152344 1.902344 21.863281 1.832031 C 22.574219 1.761719 23.285156 1.726562 24 1.726562 C 24.710938 1.726562 25.425781 1.761719 26.132812 1.832031 C 26.84375 1.902344 27.546875 2.007812 28.25 2.144531 C 28.949219 2.285156 29.640625 2.457031 30.320312 2.664062 C 31.003906 2.871094 31.675781 3.113281 32.335938 3.382812 C 32.992188 3.65625 33.636719 3.960938 34.265625 4.296875 C 34.894531 4.636719 35.507812 5 36.101562 5.398438 C 36.695312 5.792969 37.265625 6.21875 37.816406 6.671875 C 38.367188 7.125 38.898438 7.601562 39.402344 8.105469 C 39.90625 8.609375 40.382812 9.140625 40.835938 9.691406 C 41.289062 10.242188 41.714844 10.8125 42.109375 11.40625 C 42.507812 12 42.871094 12.613281 43.210938 13.242188 C 43.546875 13.871094 43.851562 14.515625 44.125 15.171875 C 44.394531 15.832031 44.636719 16.503906 44.84375 17.1875 C 45.050781 17.867188 45.222656 18.558594 45.363281 19.257812 C 45.503906 19.960938 45.605469 20.664062 45.675781 21.375 C 45.746094 22.082031 45.78125 22.796875 45.78125 23.507812 Z M 45.78125 23.507812 " fill-opacity="1" fill-rule="nonzero"/></g><path fill="#b50000" d="M 5.746094 31.578125 L 5.746094 31.398438 C 6.265625 31.398438 6.640625 31.246094 6.875 30.933594 C 7.113281 30.617188 7.261719 30.101562 7.324219 29.390625 C 7.386719 28.679688 7.417969 27.730469 7.417969 26.542969 L 7.417969 18.511719 C 7.417969 17.316406 7.386719 16.367188 7.324219 15.65625 C 7.261719 14.953125 7.113281 14.445312 6.875 14.132812 C 6.640625 13.816406 6.265625 13.660156 5.746094 13.660156 L 5.746094 13.480469 L 7.921875 13.480469 C 8.589844 13.480469 9.199219 13.453125 9.75 13.394531 C 10.296875 13.335938 10.855469 13.273438 11.414062 13.210938 C 11.980469 13.148438 12.617188 13.117188 13.320312 13.117188 C 14.613281 13.117188 15.707031 13.335938 16.601562 13.777344 C 17.5 14.21875 18.179688 14.820312 18.644531 15.582031 C 19.113281 16.339844 19.351562 17.210938 19.351562 18.199219 C 19.351562 19.027344 19.132812 19.796875 18.703125 20.519531 C 18.273438 21.246094 17.667969 21.824219 16.890625 22.265625 C 16.121094 22.707031 15.207031 22.925781 14.152344 22.925781 C 13.730469 22.925781 13.332031 22.871094 12.972656 22.757812 C 12.609375 22.640625 12.277344 22.503906 11.976562 22.351562 C 11.683594 22.195312 11.410156 22.058594 11.167969 21.945312 C 10.929688 21.824219 10.714844 21.765625 10.523438 21.765625 C 10.414062 21.765625 10.296875 21.796875 10.175781 21.851562 C 10.054688 21.910156 9.996094 22.039062 9.996094 22.242188 C 9.996094 22.46875 10.128906 22.671875 10.394531 22.851562 C 10.660156 23.03125 11.003906 23.214844 11.425781 23.402344 C 11.851562 23.582031 12.300781 23.78125 12.785156 23.996094 C 13.273438 24.210938 13.738281 24.476562 14.1875 24.789062 C 14.632812 25.109375 15.007812 25.496094 15.300781 25.953125 C 15.664062 26.507812 16.039062 27.097656 16.425781 27.730469 C 16.808594 28.363281 17.21875 28.960938 17.648438 29.519531 C 18.078125 30.074219 18.527344 30.523438 19 30.875 C 19.476562 31.226562 19.976562 31.398438 20.496094 31.398438 L 20.496094 31.578125 L 17.71875 31.578125 C 17.507812 31.578125 17.300781 31.492188 17.105469 31.324219 C 16.90625 31.152344 16.660156 30.871094 16.363281 30.46875 C 16.074219 30.0625 15.703125 29.507812 15.25 28.808594 C 14.796875 28.109375 14.214844 27.21875 13.5 26.148438 C 13.0625 25.484375 12.625 24.964844 12.191406 24.578125 C 11.75 24.1875 11.355469 23.878906 11 23.648438 C 10.640625 23.410156 10.355469 23.1875 10.140625 22.976562 C 9.921875 22.765625 9.816406 22.507812 9.816406 22.207031 C 9.816406 21.988281 9.882812 21.828125 10.011719 21.734375 C 10.148438 21.636719 10.292969 21.589844 10.445312 21.589844 C 10.710938 21.589844 10.972656 21.640625 11.230469 21.742188 C 11.484375 21.84375 11.746094 21.964844 12.019531 22.105469 C 12.292969 22.242188 12.589844 22.363281 12.914062 22.46875 C 13.238281 22.570312 13.617188 22.621094 14.042969 22.621094 C 14.617188 22.621094 15.132812 22.496094 15.589844 22.242188 C 16.050781 21.988281 16.441406 21.652344 16.765625 21.242188 C 17.09375 20.824219 17.34375 20.351562 17.519531 19.828125 C 17.695312 19.300781 17.785156 18.765625 17.785156 18.226562 C 17.785156 17.222656 17.558594 16.355469 17.113281 15.632812 C 16.664062 14.910156 16.027344 14.351562 15.207031 13.964844 C 14.386719 13.570312 13.410156 13.371094 12.285156 13.371094 C 11.621094 13.371094 11.039062 13.417969 10.539062 13.507812 C 10.039062 13.597656 9.511719 13.746094 8.957031 13.957031 L 8.957031 26.542969 C 8.957031 27.730469 8.988281 28.679688 9.050781 29.390625 C 9.113281 30.101562 9.261719 30.617188 9.496094 30.933594 C 9.730469 31.246094 10.109375 31.398438 10.632812 31.398438 L 10.632812 31.578125 Z M 5.746094 31.578125 " fill-opacity="1" fill-rule="nonzero"/><path fill="#b50000" d="M 36.570312 31.941406 C 35.441406 31.941406 34.386719 31.707031 33.40625 31.246094 C 32.425781 30.777344 31.566406 30.121094 30.824219 29.273438 C 30.085938 28.421875 29.507812 27.421875 29.097656 26.273438 C 28.6875 25.128906 28.484375 23.878906 28.484375 22.527344 C 28.484375 21.167969 28.6875 19.917969 29.097656 18.777344 C 29.507812 17.636719 30.085938 16.640625 30.824219 15.792969 C 31.566406 14.941406 32.425781 14.285156 33.40625 13.820312 C 34.386719 13.351562 35.441406 13.117188 36.570312 13.117188 C 37.609375 13.117188 38.484375 13.234375 39.199219 13.472656 C 39.914062 13.710938 40.484375 14.019531 40.917969 14.394531 C 41.34375 14.773438 41.65625 15.1875 41.851562 15.632812 C 42.042969 16.078125 42.140625 16.507812 42.140625 16.921875 C 42.140625 17.546875 42.015625 18.113281 41.765625 18.625 C 41.523438 19.128906 41.207031 19.585938 40.8125 19.996094 C 40.425781 20.410156 40.015625 20.792969 39.574219 21.148438 C 39.128906 21.503906 38.714844 21.847656 38.332031 22.171875 C 37.945312 22.496094 37.628906 22.820312 37.378906 23.148438 C 37.128906 23.46875 37.003906 23.8125 37.003906 24.171875 C 37.003906 24.457031 37.050781 24.683594 37.140625 24.859375 C 37.230469 25.027344 37.367188 25.195312 37.546875 25.351562 C 37.21875 25.425781 36.9375 25.375 36.699219 25.207031 C 36.464844 25.035156 36.285156 24.808594 36.152344 24.519531 C 36.027344 24.230469 35.96875 23.949219 35.96875 23.671875 C 35.96875 23.144531 36.089844 22.664062 36.339844 22.230469 C 36.589844 21.804688 36.90625 21.410156 37.292969 21.046875 C 37.679688 20.6875 38.085938 20.339844 38.519531 20.011719 C 38.949219 19.6875 39.355469 19.359375 39.742188 19.03125 C 40.132812 18.699219 40.449219 18.347656 40.695312 17.980469 C 40.945312 17.613281 41.070312 17.210938 41.070312 16.777344 C 41.070312 15.703125 40.695312 14.863281 39.957031 14.25 C 39.210938 13.640625 38.085938 13.335938 36.570312 13.335938 C 35.621094 13.335938 34.753906 13.566406 33.96875 14.023438 C 33.179688 14.480469 32.496094 15.125 31.917969 15.953125 C 31.34375 16.78125 30.902344 17.75 30.585938 18.867188 C 30.273438 19.984375 30.117188 21.203125 30.117188 22.527344 C 30.117188 23.847656 30.285156 25.066406 30.628906 26.1875 C 30.96875 27.308594 31.429688 28.28125 32.023438 29.113281 C 32.617188 29.9375 33.304688 30.578125 34.089844 31.035156 C 34.871094 31.492188 35.695312 31.722656 36.570312 31.722656 C 37.382812 31.722656 38.074219 31.621094 38.652344 31.417969 C 39.238281 31.207031 39.726562 30.953125 40.125 30.652344 C 40.527344 30.355469 40.84375 30.054688 41.078125 29.753906 C 41.316406 29.449219 41.484375 29.195312 41.589844 28.992188 C 41.691406 28.785156 41.742188 28.679688 41.742188 28.679688 L 41.945312 28.679688 L 41.945312 31.101562 C 41.21875 31.335938 40.429688 31.53125 39.582031 31.695312 C 38.734375 31.859375 37.730469 31.941406 36.570312 31.941406 Z M 36.570312 31.941406 " fill-opacity="1" fill-rule="nonzero"/><path stroke-linecap="butt" transform="matrix(0, 0.403668, -0.405162, 0, 24.467626, 9.88897)" fill="none" stroke-linejoin="miter" d="M 0.0040989 1.501254 L 62.787729 1.501254 " stroke="#b50000" stroke-width="3" stroke-opacity="1" stroke-miterlimit="4"/></svg>