<svg xmlns="http://www.w3.org/2000/svg" xmlns:xlink="http://www.w3.org/1999/xlink" width="1462" zoomAndPan="magnify" viewBox="0 0 1096.5 183.750001" height="245" preserveAspectRatio="xMidYMid meet" version="1.0"><defs><clipPath id="42a5d67e93"><path d="M 0.695312 0 L 1095.117188 0 L 1095.117188 183.371094 L 0.695312 183.371094 Z M 0.695312 0 " clip-rule="nonzero"/></clipPath><clipPath id="54f918a3d9"><path d="M 34 180 L 1061 180 L 1061 183.5 L 34 183.5 Z M 34 180 " clip-rule="nonzero"/></clipPath></defs><g clip-path="url(#42a5d67e93)"><path fill="#000000" d="M 331.523438 18.960938 L 331.523438 19.015625 C 331.523438 19 331.523438 18.980469 331.523438 18.960938 Z M 287.257812 53.960938 L 287.253906 54.039062 C 287.257812 54.015625 287.257812 53.988281 287.257812 53.960938 Z M 283.730469 54.003906 C 283.730469 54.03125 283.730469 54.054688 283.730469 54.082031 Z M 978.976562 81.621094 L 978.941406 81.671875 C 978.953125 81.65625 978.960938 81.640625 978.976562 81.621094 Z M 978.363281 90.734375 C 978.363281 90.75 978.359375 90.777344 978.351562 90.800781 C 978.359375 90.777344 978.359375 90.757812 978.363281 90.734375 Z M 975.25 90.75 C 975.25 90.777344 975.257812 90.800781 975.261719 90.828125 C 975.257812 90.796875 975.25 90.773438 975.25 90.75 Z M 966.070312 107.773438 Z M 965.15625 114.984375 C 965.15625 114.984375 965.148438 114.984375 965.148438 114.984375 C 965.148438 114.984375 965.15625 114.984375 965.15625 114.984375 Z M 988.457031 114.988281 Z M 965.148438 114.988281 C 965.144531 114.992188 965.144531 114.992188 965.144531 114.996094 C 965.144531 114.992188 965.144531 114.992188 965.148438 114.988281 Z M 988.464844 114.992188 C 988.464844 114.996094 988.464844 114.996094 988.46875 115 C 988.464844 114.996094 988.464844 114.996094 988.464844 114.992188 Z M 965.144531 114.996094 C 965.144531 115 965.136719 115.003906 965.136719 115.003906 C 965.136719 115.003906 965.144531 115 965.144531 114.996094 Z M 988.46875 115.003906 C 988.46875 115.003906 988.46875 115.007812 988.476562 115.007812 C 988.46875 115.007812 988.46875 115.003906 988.46875 115.003906 Z M 962.40625 117.292969 C 962.398438 117.296875 962.390625 117.304688 962.378906 117.308594 C 962.390625 117.304688 962.398438 117.296875 962.40625 117.292969 Z M 991.203125 117.289062 C 991.207031 117.300781 991.230469 117.3125 991.242188 117.320312 C 991.230469 117.308594 991.207031 117.300781 991.203125 117.289062 Z M 961.828125 117.339844 L 961.855469 117.394531 C 961.847656 117.375 961.832031 117.355469 961.828125 117.339844 Z M 990.652344 118.980469 C 990.644531 118.980469 990.644531 118.984375 990.644531 118.988281 C 990.644531 118.984375 990.644531 118.980469 990.652344 118.980469 Z M 962.953125 118.980469 C 962.960938 118.980469 962.960938 118.984375 962.96875 118.988281 C 962.960938 118.984375 962.960938 118.980469 962.953125 118.980469 Z M 962.96875 118.996094 C 962.96875 118.996094 962.96875 119 962.96875 119 C 962.96875 119 962.96875 118.996094 962.96875 118.996094 Z M 990.636719 118.992188 C 990.636719 118.996094 990.636719 119 990.636719 119 C 990.636719 119 990.636719 118.996094 990.636719 118.992188 Z M 960.933594 131.414062 L 960.949219 131.414062 Z M 959.421875 133.511719 L 959.4375 133.511719 Z M 39.746094 183.371094 L 2.59375 183.371094 C 1.546875 183.371094 0.695312 182.519531 0.695312 181.472656 C 0.695312 180.425781 1.546875 179.578125 2.59375 179.578125 L 39.746094 179.578125 C 42.183594 179.578125 44.167969 177.589844 44.167969 175.152344 L 44.167969 157.902344 C 44.167969 156.855469 45.019531 156.007812 46.066406 156.007812 L 48.039062 156.007812 L 48.039062 148.0625 L 46.925781 145.917969 C 46.785156 145.648438 46.710938 145.347656 46.710938 145.042969 L 46.710938 143.714844 C 46.710938 142.355469 47.714844 141.289062 49 141.289062 L 55.59375 141.289062 C 56.699219 141.054688 64.203125 139.296875 73.285156 132.652344 C 73.53125 132.46875 73.816406 132.351562 74.113281 132.304688 C 74.128906 132.304688 75.003906 132.167969 76.355469 131.921875 C 77.761719 131.691406 79.613281 131.355469 81.539062 130.980469 C 85.144531 130.28125 87.832031 129.65625 89.308594 129.179688 C 92.742188 128.054688 95.742188 126.0625 96.308594 125.675781 C 96.335938 125.65625 96.429688 125.597656 96.457031 125.582031 C 96.667969 125.453125 96.898438 125.367188 97.140625 125.328125 C 97.828125 125.21875 99.828125 124.847656 100.789062 124.472656 C 101.066406 124.363281 101.367188 124.324219 101.667969 124.355469 C 102.9375 124.480469 104.933594 124.46875 106.292969 124.15625 L 106.292969 120.917969 C 106.292969 119.78125 107.195312 118.855469 108.304688 118.855469 C 109.421875 118.855469 110.328125 119.78125 110.328125 120.917969 L 110.328125 124.089844 C 110.875 124.226562 111.59375 124.34375 112.425781 124.34375 C 113.269531 124.34375 113.984375 124.230469 114.539062 124.09375 L 114.539062 120.917969 C 114.539062 119.78125 115.441406 118.855469 116.550781 118.855469 C 117.660156 118.855469 118.558594 119.78125 118.558594 120.917969 L 118.558594 124.152344 C 119.929688 124.46875 121.929688 124.480469 123.203125 124.355469 C 123.5 124.324219 123.800781 124.363281 124.078125 124.472656 C 125.042969 124.847656 127.03125 125.21875 127.714844 125.328125 C 127.957031 125.367188 128.1875 125.453125 128.398438 125.582031 C 128.445312 125.609375 128.550781 125.675781 128.59375 125.707031 C 128.617188 125.722656 128.6875 125.777344 128.707031 125.792969 C 129.425781 126.28125 132.203125 128.074219 135.554688 129.179688 C 137.015625 129.648438 139.671875 130.269531 143.238281 130.964844 C 143.269531 130.96875 143.300781 130.972656 143.328125 130.980469 C 147.144531 131.722656 150.730469 132.300781 150.765625 132.308594 C 151.0625 132.355469 151.34375 132.472656 151.585938 132.652344 C 160.660156 139.292969 168.15625 141.054688 169.277344 141.289062 L 175.867188 141.289062 C 177.152344 141.289062 178.15625 142.355469 178.15625 143.714844 L 178.15625 145.042969 C 178.15625 145.347656 178.082031 145.648438 177.941406 145.917969 L 176.828125 148.0625 L 176.828125 156.007812 L 178.789062 156.007812 C 179.835938 156.007812 180.683594 156.855469 180.683594 157.902344 L 180.683594 164.921875 L 182.019531 164.921875 L 182.007812 164.867188 C 181.980469 164.738281 181.96875 164.609375 181.96875 164.476562 L 181.96875 163.65625 C 181.96875 163.375 182.03125 163.105469 182.144531 162.863281 L 182.144531 157.03125 L 182.03125 156.613281 C 181.988281 156.453125 181.96875 156.289062 181.96875 156.125 L 181.96875 155.238281 C 181.96875 154.832031 182.097656 154.449219 182.316406 154.140625 L 182.316406 97.765625 C 182.089844 97.445312 181.96875 97.0625 181.96875 96.667969 L 181.96875 95.140625 C 181.96875 94.730469 182.097656 94.351562 182.316406 94.042969 L 182.316406 85.847656 L 182.042969 85.1875 C 181.949219 84.960938 181.902344 84.710938 181.902344 84.464844 L 181.902344 77.902344 L 181.382812 77.214844 C 181.136719 76.882812 181 76.484375 181 76.070312 L 181 73.992188 C 181 73.269531 181.410156 72.609375 182.058594 72.289062 C 182.710938 71.96875 183.484375 72.046875 184.054688 72.488281 L 184.1875 72.589844 L 209.335938 72.589844 L 209.46875 72.488281 C 210.039062 72.046875 210.8125 71.96875 211.464844 72.289062 C 212.113281 72.609375 212.523438 73.269531 212.523438 73.992188 L 212.523438 76.070312 C 212.523438 76.484375 212.386719 76.882812 212.140625 77.214844 L 211.621094 77.902344 L 211.621094 84.464844 C 211.621094 84.710938 211.574219 84.957031 211.480469 85.1875 L 211.207031 85.847656 L 211.207031 94.042969 C 211.425781 94.351562 211.554688 94.730469 211.554688 95.140625 L 211.554688 96.667969 C 211.554688 97.0625 211.433594 97.445312 211.207031 97.765625 L 211.207031 142.160156 L 215.882812 142.160156 L 215.882812 53.839844 C 215.882812 53.289062 216.125 52.765625 216.539062 52.402344 C 216.957031 52.046875 217.511719 51.886719 218.054688 51.960938 L 236.257812 54.605469 C 237.1875 54.742188 237.882812 55.542969 237.882812 56.484375 L 237.882812 59.445312 L 241.75 61.625 C 242.347656 61.964844 242.714844 62.59375 242.714844 63.28125 L 242.714844 65.058594 C 242.855469 65.324219 242.929688 65.621094 242.929688 65.9375 L 242.929688 91.894531 L 246.730469 92.304688 C 247.695312 92.40625 248.425781 93.21875 248.425781 94.1875 L 248.425781 120.148438 L 252.402344 120.417969 C 253.394531 120.484375 254.167969 121.3125 254.167969 122.308594 L 254.167969 149 L 258.222656 149.132812 C 259.242188 149.167969 260.054688 150.003906 260.054688 151.03125 L 260.054688 162.8125 L 263.585938 162.8125 L 267.039062 93.535156 C 267.089844 92.527344 267.921875 91.734375 268.933594 91.734375 L 268.984375 91.734375 L 269.199219 86.257812 C 269.226562 85.640625 269.546875 85.078125 270.0625 84.742188 L 272.1875 83.363281 C 272.496094 83.164062 272.855469 83.058594 273.222656 83.058594 L 276.195312 83.058594 L 276.195312 76.066406 C 276.195312 75.019531 277.042969 74.167969 278.089844 74.167969 L 280.722656 74.167969 L 280.742188 72.226562 C 280.75 71.691406 280.980469 71.1875 281.378906 70.832031 L 281.378906 63.027344 C 281.378906 62.429688 281.65625 61.867188 282.136719 61.511719 L 283.320312 60.621094 L 283.464844 53.921875 C 283.464844 52.847656 284.371094 51.9375 285.484375 51.9375 C 286.609375 51.9375 287.523438 52.847656 287.523438 53.960938 L 287.679688 60.839844 L 288.574219 61.515625 C 289.050781 61.871094 289.332031 62.433594 289.332031 63.027344 L 289.332031 70.832031 C 289.722656 71.1875 289.957031 71.691406 289.960938 72.226562 L 289.984375 74.167969 L 292.605469 74.167969 C 293.65625 74.167969 294.503906 75.019531 294.503906 76.066406 L 294.503906 83.058594 L 297.472656 83.058594 C 297.839844 83.058594 298.199219 83.164062 298.507812 83.363281 L 300.632812 84.742188 C 301.148438 85.078125 301.46875 85.640625 301.496094 86.257812 L 301.773438 91.734375 C 302.785156 91.734375 303.617188 92.527344 303.667969 93.535156 L 306.574219 151.855469 L 310.648438 151.855469 L 310.648438 42.199219 C 310.648438 41.46875 311.058594 40.835938 311.660156 40.519531 L 311.660156 39.261719 C 311.660156 38.214844 312.511719 37.367188 313.558594 37.367188 L 316.851562 37.367188 L 316.851562 32.011719 C 316.851562 31.109375 317.476562 30.359375 318.3125 30.164062 C 318.421875 29.214844 319.222656 28.480469 320.199219 28.480469 L 323.238281 28.480469 L 323.238281 22.859375 C 323.238281 22 323.8125 21.277344 324.589844 21.042969 C 324.585938 20.996094 324.585938 20.949219 324.585938 20.902344 L 324.585938 20.546875 C 324.585938 20.082031 324.753906 19.652344 325.035156 19.324219 L 325.035156 18.945312 C 325.042969 17.902344 325.925781 17.035156 326.96875 17.035156 C 327.488281 17.035156 327.964844 17.25 328.3125 17.59375 C 328.675781 17.234375 329.167969 17.003906 329.695312 17.003906 C 330.773438 17.003906 331.652344 17.878906 331.652344 18.960938 L 331.660156 19.363281 C 331.917969 19.691406 332.070312 20.101562 332.070312 20.546875 L 332.070312 20.902344 C 332.070312 20.949219 332.070312 20.996094 332.066406 21.042969 C 332.847656 21.277344 333.421875 22 333.421875 22.859375 L 333.421875 28.480469 L 336.460938 28.480469 C 337.433594 28.480469 338.238281 29.214844 338.347656 30.164062 C 339.183594 30.359375 339.808594 31.109375 339.808594 32.011719 L 339.808594 37.367188 L 343.101562 37.367188 C 344.148438 37.367188 344.996094 38.214844 344.996094 39.261719 L 344.996094 40.519531 C 345.601562 40.835938 346.007812 41.46875 346.007812 42.199219 L 346.007812 131.996094 L 352.074219 135.058594 L 352.074219 80.78125 C 352.089844 79.589844 352.808594 78.359375 354.125 78.023438 L 354.125 75.292969 C 354.125 75.015625 354.183594 74.753906 354.289062 74.519531 L 354.289062 71.449219 C 354.289062 70.402344 355.226562 69.460938 356.273438 69.460938 C 357.359375 69.460938 358.246094 70.355469 358.246094 71.449219 L 358.246094 73.394531 L 362.859375 73.394531 L 362.859375 69.273438 C 362.847656 69.054688 362.761719 66.25 364.59375 64.296875 C 365.230469 63.617188 366.015625 63.128906 366.921875 62.847656 L 366.921875 61.964844 C 366.921875 60.917969 367.859375 59.992188 368.90625 59.992188 C 369.992188 59.992188 370.878906 60.875 370.878906 61.964844 L 370.878906 62.84375 C 371.789062 63.128906 372.578125 63.621094 373.214844 64.300781 C 375.046875 66.257812 374.949219 69.058594 374.933594 69.375 L 374.9375 73.394531 L 379.550781 73.394531 L 379.550781 71.449219 C 379.550781 70.402344 380.476562 69.460938 381.527344 69.460938 C 382.617188 69.460938 383.511719 70.355469 383.511719 71.449219 L 383.511719 74.519531 C 383.613281 74.753906 383.675781 75.015625 383.675781 75.292969 L 383.675781 78.023438 C 384.988281 78.359375 385.707031 79.585938 385.722656 80.753906 L 385.722656 143.484375 L 391.808594 143.113281 L 391.808594 137.816406 C 391.808594 137.125 392.183594 136.488281 392.792969 136.15625 L 396.6875 134.015625 L 396.6875 101.65625 C 396.6875 101.054688 396.972656 100.488281 397.457031 100.128906 L 410.566406 90.46875 C 411.042969 90.117188 411.652344 90.007812 412.21875 90.171875 L 422.742188 93.234375 C 423.554688 93.46875 424.109375 94.210938 424.109375 95.054688 L 424.109375 136.757812 C 426.113281 137.324219 430.058594 138.472656 434.707031 139.996094 L 434.707031 79.21875 C 434.707031 78.492188 435.113281 77.863281 435.714844 77.542969 L 435.714844 43.300781 C 435.714844 42.980469 435.792969 42.667969 435.945312 42.390625 L 438.667969 37.394531 C 438.957031 36.855469 439.488281 36.496094 440.085938 36.417969 L 442.644531 30.976562 C 442.910156 30.417969 443.425781 30.027344 444.019531 29.917969 L 450.886719 14.503906 C 451.03125 14.171875 451.269531 13.898438 451.558594 13.703125 L 451.558594 12.179688 C 451.558594 11.835938 451.652344 11.5 451.828125 11.207031 L 452.039062 10.851562 L 452.039062 2.894531 C 452.039062 2.605469 452.105469 2.324219 452.230469 2.066406 L 452.714844 1.066406 C 453.035156 0.414062 453.695312 0 454.421875 0 C 455.148438 0 455.8125 0.414062 456.128906 1.066406 L 456.613281 2.066406 C 456.742188 2.324219 456.804688 2.609375 456.804688 2.894531 L 456.804688 10.851562 L 457.015625 11.207031 C 457.191406 11.5 457.289062 11.835938 457.289062 12.179688 L 457.289062 13.703125 C 457.578125 13.898438 457.8125 14.171875 457.960938 14.503906 L 464.828125 29.917969 C 465.421875 30.027344 465.9375 30.417969 466.199219 30.976562 L 468.757812 36.417969 C 469.355469 36.496094 469.882812 36.855469 470.179688 37.394531 L 472.898438 42.390625 C 473.050781 42.667969 473.132812 42.980469 473.132812 43.300781 L 473.132812 77.542969 C 473.734375 77.863281 474.140625 78.492188 474.140625 79.21875 L 474.140625 134.152344 L 482.703125 134.152344 L 482.703125 89.667969 C 482.703125 65.761719 488.21875 47.632812 488.449219 46.871094 C 488.699219 46.078125 489.429688 45.535156 490.261719 45.535156 L 490.488281 45.535156 C 490.917969 45.535156 491.3125 45.679688 491.632812 45.917969 C 492.617188 45.984375 493.398438 46.808594 493.398438 47.8125 L 493.398438 62.925781 L 502.878906 62.925781 L 502.878906 47.8125 C 502.878906 46.808594 503.660156 45.984375 504.644531 45.917969 C 504.964844 45.679688 505.359375 45.535156 505.789062 45.535156 L 506.011719 45.535156 C 506.84375 45.535156 507.578125 46.078125 507.824219 46.871094 C 508.058594 47.632812 513.570312 65.761719 513.570312 89.667969 L 513.570312 148.484375 L 521.175781 148.484375 L 521.175781 68.644531 C 521.175781 67.59375 522.027344 66.746094 523.074219 66.746094 L 523.761719 66.746094 C 523.832031 65.761719 524.652344 64.988281 525.652344 64.988281 L 550.980469 64.988281 C 551.980469 64.988281 552.800781 65.761719 552.871094 66.746094 L 553.558594 66.746094 C 554.605469 66.746094 555.457031 67.59375 555.457031 68.644531 L 555.457031 138.21875 L 564.1875 138.21875 L 564.1875 64.757812 C 564.1875 63.707031 565.039062 62.859375 566.085938 62.859375 L 566.6875 62.859375 L 566.6875 58.664062 C 566.6875 57.914062 567.121094 57.269531 567.75 56.960938 C 568.292969 55.546875 569.511719 54.386719 571.292969 54.480469 C 571.324219 54.277344 571.390625 54.082031 571.476562 53.902344 L 571.476562 49.808594 C 571.289062 49.515625 571.179688 49.164062 571.179688 48.789062 L 571.179688 47.851562 C 571.179688 47.652344 571.210938 47.457031 571.269531 47.277344 C 571.210938 47.09375 571.179688 46.902344 571.179688 46.703125 L 571.179688 45.761719 C 571.179688 45.386719 571.289062 45.035156 571.476562 44.742188 L 571.476562 44.367188 C 571.476562 43.320312 572.328125 42.472656 573.375 42.472656 L 575.335938 42.472656 C 576.210938 42.472656 576.945312 43.0625 577.164062 43.867188 L 580.605469 43.867188 C 580.828125 43.0625 581.5625 42.472656 582.4375 42.472656 L 584.394531 42.472656 C 585.441406 42.472656 586.292969 43.320312 586.292969 44.367188 L 586.292969 44.738281 C 586.480469 45.03125 586.59375 45.382812 586.59375 45.761719 L 586.59375 46.703125 C 586.59375 46.902344 586.558594 47.09375 586.503906 47.277344 C 586.558594 47.457031 586.59375 47.652344 586.59375 47.851562 L 586.59375 48.789062 C 586.59375 49.167969 586.480469 49.519531 586.292969 49.816406 L 586.292969 53.902344 C 586.382812 54.078125 586.445312 54.273438 586.480469 54.480469 C 588.277344 54.386719 589.480469 55.546875 590.023438 56.960938 C 590.273438 57.085938 590.496094 57.265625 590.671875 57.484375 L 602.003906 57.484375 C 602.183594 57.265625 602.40625 57.082031 602.65625 56.960938 C 603.199219 55.546875 604.425781 54.386719 606.199219 54.480469 C 606.234375 54.277344 606.296875 54.082031 606.382812 53.902344 L 606.382812 49.808594 C 606.199219 49.515625 606.085938 49.164062 606.085938 48.789062 L 606.085938 47.851562 C 606.085938 47.652344 606.117188 47.457031 606.175781 47.277344 C 606.117188 47.09375 606.085938 46.902344 606.085938 46.703125 L 606.085938 45.761719 C 606.085938 45.386719 606.199219 45.035156 606.382812 44.742188 L 606.382812 44.367188 C 606.382812 43.320312 607.234375 42.472656 608.28125 42.472656 L 610.242188 42.472656 C 611.117188 42.472656 611.855469 43.0625 612.074219 43.867188 L 615.515625 43.867188 C 615.734375 43.0625 616.472656 42.472656 617.34375 42.472656 L 619.304688 42.472656 C 620.351562 42.472656 621.199219 43.320312 621.199219 44.367188 L 621.199219 44.738281 C 621.390625 45.035156 621.5 45.386719 621.5 45.761719 L 621.5 46.703125 C 621.5 46.902344 621.46875 47.09375 621.410156 47.277344 C 621.46875 47.457031 621.5 47.652344 621.5 47.851562 L 621.5 48.789062 C 621.5 49.167969 621.390625 49.519531 621.199219 49.8125 L 621.199219 53.902344 C 621.289062 54.082031 621.351562 54.277344 621.382812 54.480469 C 623.175781 54.398438 624.390625 55.546875 624.929688 56.960938 C 625.558594 57.269531 625.992188 57.917969 625.992188 58.664062 L 625.992188 62.859375 L 626.59375 62.859375 C 627.640625 62.859375 628.492188 63.707031 628.492188 64.757812 L 628.492188 148.484375 L 639.59375 148.484375 L 639.59375 57.859375 C 639.59375 57.558594 639.664062 57.265625 639.796875 57 L 640.472656 55.667969 L 640.472656 51.953125 C 640.472656 51.613281 640.5625 51.28125 640.738281 50.984375 L 641.480469 49.738281 C 641.820312 49.160156 642.441406 48.808594 643.113281 48.808594 C 643.332031 48.773438 643.492188 48.835938 643.667969 48.890625 L 643.667969 46.433594 C 643.667969 46.109375 643.753906 45.789062 643.910156 45.503906 L 654.15625 27.289062 L 654.15625 23.246094 C 654.15625 23.0625 654.1875 22.875 654.238281 22.695312 L 655.578125 18.316406 C 655.820312 17.519531 656.554688 16.976562 657.386719 16.976562 C 658.222656 16.976562 658.957031 17.519531 659.203125 18.320312 L 660.535156 22.695312 C 660.59375 22.875 660.617188 23.0625 660.617188 23.246094 L 660.617188 27.289062 L 670.863281 45.503906 C 671.023438 45.789062 671.105469 46.109375 671.105469 46.433594 L 671.105469 48.890625 C 671.285156 48.835938 671.460938 48.765625 671.664062 48.808594 C 672.328125 48.808594 672.953125 49.160156 673.296875 49.738281 L 674.035156 50.984375 C 674.210938 51.28125 674.304688 51.613281 674.304688 51.953125 L 674.304688 55.667969 L 674.976562 57 C 675.117188 57.265625 675.183594 57.558594 675.183594 57.859375 L 675.183594 131.886719 L 684.160156 131.886719 L 684.160156 85.574219 C 684.160156 84.527344 685.003906 83.675781 686.050781 83.675781 L 710.714844 83.675781 C 711.753906 83.675781 712.609375 84.527344 712.609375 85.574219 L 712.609375 151.328125 L 721.296875 151.328125 L 721.296875 80.230469 C 721.296875 79.183594 722.144531 78.332031 723.191406 78.332031 L 724.847656 78.332031 L 724.847656 75.15625 C 724.847656 74.109375 725.695312 73.257812 726.742188 73.257812 L 728.394531 73.257812 L 728.394531 70.085938 C 728.394531 69.039062 729.246094 68.1875 730.292969 68.1875 L 731.953125 68.1875 L 731.953125 65.011719 C 731.953125 63.964844 732.796875 63.117188 733.84375 63.117188 L 735.496094 63.117188 L 735.496094 59.941406 C 735.496094 58.894531 736.34375 58.046875 737.398438 58.046875 L 738.558594 58.046875 L 738.558594 57.574219 C 738.558594 56.675781 739.183594 55.925781 740.015625 55.730469 C 740.171875 55.207031 740.539062 54.773438 741.023438 54.542969 L 741.023438 51.25 C 741.023438 50.792969 741.191406 50.355469 741.484375 50.015625 L 741.484375 47.585938 C 741.484375 46.453125 742.398438 45.535156 743.535156 45.535156 C 744.660156 45.535156 745.582031 46.453125 745.582031 47.585938 L 745.582031 50.015625 C 745.871094 50.355469 746.039062 50.792969 746.039062 51.25 L 746.039062 54.542969 C 746.519531 54.773438 746.890625 55.203125 747.042969 55.726562 C 747.882812 55.921875 748.507812 56.675781 748.507812 57.574219 L 748.507812 58.046875 L 749.671875 58.046875 C 750.71875 58.046875 751.5625 58.894531 751.5625 59.941406 L 751.5625 63.117188 L 753.214844 63.117188 C 754.269531 63.117188 755.117188 63.964844 755.117188 65.011719 L 755.117188 68.1875 L 756.769531 68.1875 C 757.816406 68.1875 758.667969 69.039062 758.667969 70.085938 L 758.667969 73.257812 L 760.320312 73.257812 C 761.367188 73.257812 762.21875 74.109375 762.21875 75.15625 L 762.21875 78.332031 L 763.871094 78.332031 C 764.917969 78.332031 765.765625 79.183594 765.765625 80.230469 L 765.765625 139.949219 L 773.199219 139.949219 L 773.199219 96 C 773.199219 95.382812 773.507812 94.800781 774.011719 94.445312 L 800.679688 75.789062 C 801.101562 75.496094 801.625 75.382812 802.128906 75.480469 C 802.632812 75.578125 803.074219 75.878906 803.359375 76.308594 L 804.230469 77.648438 C 804.433594 77.957031 804.53125 78.316406 804.53125 78.683594 L 804.53125 155.4375 L 810.292969 155.4375 L 810.292969 54.066406 C 810.292969 53.449219 810.589844 52.871094 811.09375 52.519531 C 811.308594 52.367188 813.175781 51.136719 817.894531 50.414062 C 818.121094 49.8125 818.644531 49.347656 819.304688 49.21875 C 819.390625 49.203125 821.054688 48.878906 823.546875 48.742188 L 823.574219 45.425781 C 823.285156 45.089844 823.109375 44.65625 823.109375 44.183594 L 823.109375 44.011719 C 823.109375 43.621094 823.230469 43.253906 823.433594 42.953125 C 823.238281 42.652344 823.125 42.292969 823.125 41.902344 L 823.125 41.75 C 823.125 41.351562 823.246094 40.984375 823.453125 40.679688 C 823.246094 40.378906 823.132812 40.015625 823.132812 39.625 L 823.132812 39.480469 C 823.132812 39.082031 823.25 38.714844 823.460938 38.410156 C 823.257812 38.105469 823.136719 37.742188 823.136719 37.347656 L 823.136719 37.214844 C 823.136719 36.8125 823.265625 36.441406 823.472656 36.136719 C 823.265625 35.832031 823.144531 35.464844 823.144531 35.070312 C 823.144531 34.652344 823.285156 34.242188 823.519531 33.902344 C 823.292969 33.59375 823.15625 33.207031 823.15625 32.792969 C 823.15625 32.371094 823.292969 31.964844 823.527344 31.628906 C 823.296875 31.316406 823.164062 30.929688 823.164062 30.515625 C 823.164062 30.09375 823.296875 29.6875 823.535156 29.351562 C 823.304688 29.039062 823.171875 28.65625 823.171875 28.234375 C 823.171875 27.722656 823.378906 27.234375 823.707031 26.871094 L 823.769531 18.636719 C 823.808594 17.476562 824.796875 16.589844 825.855469 16.617188 C 826.925781 16.617188 827.816406 17.480469 827.859375 18.585938 L 827.917969 26.824219 C 828.253906 27.167969 828.457031 27.636719 828.457031 28.148438 C 828.457031 28.566406 828.320312 28.964844 828.09375 29.292969 C 828.328125 29.605469 828.460938 29.996094 828.460938 30.414062 C 828.460938 30.832031 828.335938 31.230469 828.105469 31.558594 C 828.339844 31.875 828.476562 32.261719 828.476562 32.679688 C 828.476562 33.09375 828.339844 33.496094 828.121094 33.828125 C 828.347656 34.140625 828.484375 34.527344 828.484375 34.949219 C 828.484375 35.359375 828.347656 35.761719 828.125 36.097656 C 828.355469 36.410156 828.488281 36.796875 828.488281 37.214844 L 828.488281 37.347656 C 828.488281 37.742188 828.375 38.105469 828.167969 38.410156 C 828.375 38.714844 828.503906 39.082031 828.503906 39.480469 L 828.503906 39.625 C 828.503906 40.015625 828.382812 40.378906 828.179688 40.679688 C 828.386719 40.984375 828.507812 41.351562 828.507812 41.75 L 828.507812 41.902344 C 828.507812 42.292969 828.394531 42.652344 828.195312 42.953125 C 828.394531 43.253906 828.515625 43.621094 828.515625 44.011719 L 828.515625 44.183594 C 828.515625 44.65625 828.339844 45.089844 828.058594 45.425781 L 828.078125 48.742188 C 830.578125 48.878906 832.242188 49.203125 832.324219 49.21875 C 832.988281 49.347656 833.503906 49.8125 833.734375 50.414062 C 838.460938 51.136719 840.320312 52.367188 840.535156 52.519531 C 841.039062 52.871094 841.339844 53.449219 841.339844 54.066406 L 841.339844 145.320312 L 847.109375 145.320312 C 847.585938 118.121094 849.355469 113.335938 849.714844 112.648438 C 849.882812 112.316406 850.144531 112.042969 850.464844 111.863281 L 852.722656 110.597656 C 853.164062 110.335938 853.714844 110.261719 854.230469 110.417969 C 855.03125 110.660156 855.582031 111.394531 855.582031 112.230469 L 855.582031 112.996094 L 865.5 112.996094 L 865.5 77.894531 C 865.5 77.785156 865.503906 77.671875 865.523438 77.566406 C 865.558594 77.382812 869.03125 59.261719 890.925781 59.261719 C 891.441406 59.261719 891.933594 59.472656 892.289062 59.84375 C 892.652344 60.214844 892.839844 60.714844 892.820312 61.226562 L 892.289062 75.984375 L 893.878906 77.441406 C 894.242188 77.773438 894.464844 78.238281 894.492188 78.730469 C 894.503906 78.949219 895.738281 101.007812 895.007812 155.4375 L 902.433594 155.4375 L 902.433594 150.835938 C 902.433594 150.515625 902.511719 150.214844 902.652344 149.953125 L 902.652344 146.835938 C 902.296875 146.492188 902.078125 146.007812 902.078125 145.472656 L 902.078125 144.511719 C 902.078125 143.976562 902.296875 143.496094 902.652344 143.148438 L 902.652344 142.589844 C 902.652344 141.644531 903.347656 140.863281 904.246094 140.71875 C 905.367188 139.328125 908.011719 136.914062 913.585938 135.511719 C 913.492188 135.183594 913.492188 134.828125 913.59375 134.488281 C 913.773438 133.859375 914.269531 133.367188 914.902344 133.191406 L 921.355469 131.367188 L 921.355469 125.125 C 921.253906 124.863281 921.199219 124.582031 921.199219 124.292969 C 921.199219 123.074219 922.179688 122.082031 923.394531 122.082031 C 924.617188 122.082031 925.605469 123.074219 925.605469 124.292969 C 925.605469 124.59375 925.542969 124.882812 925.4375 125.148438 L 925.4375 131.363281 L 931.886719 133.191406 C 932.527344 133.371094 933.015625 133.859375 933.199219 134.488281 C 933.296875 134.828125 933.296875 135.183594 933.203125 135.511719 C 938.777344 136.914062 941.421875 139.328125 942.542969 140.71875 C 943.121094 140.808594 943.613281 141.164062 943.894531 141.652344 L 951.40625 141.589844 C 951.40625 141.105469 951.59375 140.636719 951.929688 140.285156 L 952.546875 139.632812 L 952.546875 137.480469 C 952.546875 136.433594 953.402344 135.585938 954.449219 135.585938 L 956.746094 135.585938 L 956.746094 135.308594 C 956.746094 134.675781 957.054688 134.117188 957.523438 133.773438 L 957.523438 133.511719 C 957.523438 133.039062 957.707031 132.585938 958.019531 132.234375 L 958.570312 131.628906 C 958.710938 131.476562 958.875 131.347656 959.046875 131.25 C 959.0625 131.101562 959.089844 130.953125 959.136719 130.816406 L 959.136719 130.363281 C 959.136719 130.101562 959.1875 129.839844 959.296875 129.597656 L 959.402344 120.574219 C 959.277344 120.453125 959.160156 120.308594 959.066406 120.148438 L 958.566406 119.273438 C 957.988281 118.324219 958.203125 117.085938 959.074219 116.367188 C 959.074219 116.21875 959.089844 116.066406 959.113281 115.914062 C 959.214844 115.292969 959.539062 114.746094 960.027344 114.339844 C 960.4375 113.179688 961.175781 112.722656 961.867188 112.574219 L 961.867188 111.328125 C 961.519531 110.757812 961.363281 109.984375 961.550781 109.023438 C 961.644531 108.578125 961.875 107.996094 962.425781 107.402344 C 962.519531 107.019531 962.6875 106.613281 962.960938 106.21875 C 962.558594 103.296875 962.390625 95.109375 971.625 89.929688 C 971.792969 89.335938 972.140625 88.714844 972.765625 88.195312 L 972.765625 88.140625 C 972.765625 87.71875 972.914062 87.226562 973.269531 86.796875 L 973.269531 85.097656 C 973.15625 84.800781 973.082031 84.449219 973.121094 84.042969 C 973.132812 83.9375 973.15625 83.832031 973.179688 83.726562 C 973.109375 82.875 973.300781 81.816406 974.222656 81.011719 C 974.222656 81.007812 974.230469 81 974.234375 80.996094 C 973.804688 80.261719 973.382812 79.207031 973.898438 78.121094 C 974.296875 77.277344 975.15625 76.785156 976.042969 76.875 C 976.324219 76.90625 976.578125 76.984375 976.808594 77.101562 C 977.035156 76.984375 977.289062 76.90625 977.570312 76.875 C 978.476562 76.785156 979.324219 77.277344 979.726562 78.140625 C 980.21875 79.230469 979.789062 80.28125 979.371094 80.996094 C 979.371094 81 979.378906 81 979.378906 81 C 980.238281 81.734375 980.519531 82.792969 980.4375 83.746094 C 980.457031 83.84375 980.480469 83.941406 980.484375 84.039062 C 980.53125 84.441406 980.457031 84.792969 980.34375 85.085938 L 980.34375 86.796875 C 980.671875 87.195312 980.828125 87.648438 980.847656 88.039062 L 980.847656 88.195312 C 981.480469 88.710938 981.828125 89.339844 981.996094 89.9375 C 991.234375 95.117188 991.054688 103.3125 990.660156 106.226562 C 990.925781 106.621094 991.09375 107.023438 991.1875 107.40625 C 991.738281 107.996094 991.960938 108.574219 992.046875 109 C 992.257812 109.992188 992.082031 110.761719 991.738281 111.320312 L 991.738281 112.574219 C 992.4375 112.722656 993.167969 113.179688 993.585938 114.34375 C 994.0625 114.734375 994.390625 115.289062 994.492188 115.910156 C 994.519531 116.066406 994.53125 116.21875 994.53125 116.363281 C 995.378906 117.085938 995.597656 118.273438 995.074219 119.234375 L 994.53125 120.164062 C 994.4375 120.316406 994.332031 120.457031 994.203125 120.574219 L 994.308594 129.570312 C 994.425781 129.816406 994.484375 130.089844 994.484375 130.363281 L 994.484375 130.855469 C 994.519531 130.980469 994.546875 131.109375 994.558594 131.242188 C 994.746094 131.34375 994.914062 131.480469 995.054688 131.644531 L 995.597656 132.25 C 995.910156 132.597656 996.074219 133.046875 996.074219 133.511719 L 996.074219 133.761719 C 996.558594 134.109375 996.875 134.671875 996.875 135.308594 L 996.875 135.585938 L 999.171875 135.585938 C 1000.21875 135.585938 1001.066406 136.433594 1001.066406 137.480469 L 1001.066406 139.632812 L 1001.691406 140.285156 C 1002.027344 140.636719 1002.214844 141.105469 1002.214844 141.589844 L 1002.214844 141.652344 L 1009.714844 141.652344 C 1009.996094 141.160156 1010.492188 140.804688 1011.074219 140.714844 C 1012.191406 139.324219 1014.835938 136.914062 1020.402344 135.511719 C 1020.308594 135.183594 1020.308594 134.828125 1020.410156 134.488281 C 1020.589844 133.859375 1021.082031 133.367188 1021.710938 133.191406 L 1028.183594 131.363281 L 1028.183594 125.148438 C 1028.070312 124.882812 1028.015625 124.59375 1028.015625 124.292969 C 1028.015625 123.074219 1029.003906 122.082031 1030.210938 122.082031 C 1031.425781 122.082031 1032.421875 123.074219 1032.421875 124.292969 C 1032.421875 124.59375 1032.359375 124.882812 1032.253906 125.152344 L 1032.253906 131.363281 L 1038.71875 133.191406 C 1039.351562 133.367188 1039.847656 133.859375 1040.019531 134.488281 C 1040.128906 134.828125 1040.128906 135.183594 1040.035156 135.511719 C 1045.601562 136.914062 1048.242188 139.328125 1049.363281 140.71875 C 1050.261719 140.863281 1050.960938 141.644531 1050.960938 142.589844 L 1050.960938 143.136719 C 1051.320312 143.484375 1051.542969 143.972656 1051.542969 144.511719 L 1051.542969 145.472656 C 1051.542969 146.015625 1051.320312 146.503906 1050.960938 146.847656 L 1050.960938 149.929688 C 1051.101562 150.199219 1051.179688 150.507812 1051.179688 150.835938 L 1051.179688 169.503906 C 1051.46875 169.835938 1051.636719 170.265625 1051.636719 170.738281 L 1051.636719 174.101562 C 1051.636719 176.542969 1053.625 178.527344 1056.0625 178.527344 L 1093.226562 178.527344 C 1094.265625 178.527344 1095.121094 179.375 1095.121094 180.425781 C 1095.121094 181.472656 1094.265625 182.320312 1093.226562 182.320312 L 1056.0625 182.320312 C 1051.535156 182.320312 1047.84375 178.632812 1047.84375 174.101562 L 1047.84375 171.972656 C 1047.5625 171.640625 1047.386719 171.210938 1047.386719 170.738281 L 1047.386719 151.738281 C 1047.246094 151.46875 1047.164062 151.160156 1047.164062 150.835938 L 1047.164062 145.472656 C 1047.164062 145.308594 1047.179688 145.144531 1047.226562 144.992188 C 1047.179688 144.839844 1047.164062 144.679688 1047.164062 144.511719 L 1047.164062 144.070312 C 1046.949219 143.902344 1046.78125 143.6875 1046.65625 143.441406 C 1046.65625 143.441406 1044.722656 140.136719 1037.242188 138.792969 C 1036.335938 138.628906 1035.683594 137.84375 1035.683594 136.925781 L 1035.683594 136.273438 L 1030.257812 134.742188 C 1030.246094 134.738281 1030.230469 134.734375 1030.21875 134.730469 C 1030.207031 134.734375 1030.191406 134.738281 1030.171875 134.742188 L 1024.753906 136.273438 L 1024.753906 136.925781 C 1024.753906 137.84375 1024.09375 138.628906 1023.1875 138.792969 C 1015.703125 140.136719 1013.78125 143.441406 1013.761719 143.472656 C 1013.621094 143.734375 1013.414062 143.960938 1013.171875 144.132812 C 1012.929688 144.894531 1012.210938 145.449219 1011.363281 145.449219 L 1000.3125 145.449219 C 999.265625 145.449219 998.417969 144.597656 998.417969 143.550781 L 998.417969 142.347656 L 997.796875 141.695312 C 997.460938 141.34375 997.273438 140.875 997.273438 140.390625 L 997.273438 139.378906 L 994.792969 139.378906 C 993.746094 139.378906 992.902344 138.527344 992.902344 137.480469 L 992.902344 136.703125 C 992.523438 136.355469 992.289062 135.859375 992.289062 135.308594 L 992.289062 134.761719 C 991.421875 134.585938 990.773438 133.820312 990.773438 132.902344 L 990.773438 131.945312 C 990.71875 131.769531 990.691406 131.582031 990.691406 131.386719 L 990.691406 130.828125 C 990.578125 130.582031 990.523438 130.316406 990.523438 130.046875 L 990.398438 119.941406 C 990.398438 119.683594 990.445312 119.429688 990.542969 119.195312 C 990.550781 118.894531 990.625 118.605469 990.753906 118.351562 C 990.617188 118.160156 990.515625 117.945312 990.457031 117.710938 C 990.363281 117.339844 990.390625 116.957031 990.511719 116.609375 C 990.457031 116.535156 990.410156 116.460938 990.363281 116.386719 C 989.804688 116.378906 989.324219 116.21875 988.917969 115.910156 C 988.1875 115.359375 988.054688 114.597656 988.011719 114.207031 C 987.972656 114.042969 987.945312 113.871094 987.945312 113.695312 L 987.945312 110.574219 C 987.945312 110.285156 988.011719 110.007812 988.128906 109.761719 C 987.691406 109.390625 987.449219 108.847656 987.457031 108.285156 C 987.441406 108.269531 987.421875 108.257812 987.402344 108.238281 C 986.839844 107.761719 986.605469 107 986.804688 106.289062 C 986.890625 105.949219 988.941406 97.667969 979.363281 92.832031 C 978.6875 92.492188 978.289062 91.792969 978.324219 91.058594 C 978.304688 91.050781 978.285156 91.042969 978.257812 91.03125 C 977.539062 90.746094 977.0625 90.046875 977.0625 89.265625 L 977.0625 89.035156 C 976.960938 88.933594 976.878906 88.820312 976.808594 88.699219 C 976.738281 88.820312 976.660156 88.933594 976.558594 89.039062 L 976.558594 89.265625 C 976.558594 90.046875 976.089844 90.746094 975.355469 91.03125 C 975.328125 91.042969 975.308594 91.054688 975.28125 91.0625 C 975.316406 91.796875 974.914062 92.492188 974.242188 92.832031 C 964.671875 97.667969 966.730469 105.949219 966.824219 106.300781 C 967.003906 107.011719 966.769531 107.773438 966.203125 108.246094 C 966.183594 108.265625 966.171875 108.28125 966.152344 108.296875 C 966.15625 108.851562 965.910156 109.394531 965.472656 109.761719 C 965.59375 110.007812 965.660156 110.285156 965.660156 110.574219 L 965.660156 113.695312 C 965.660156 113.863281 965.632812 114.027344 965.59375 114.1875 C 965.558594 114.605469 965.417969 115.351562 964.707031 115.902344 C 964.296875 116.21875 963.808594 116.378906 963.242188 116.390625 C 963.195312 116.460938 963.148438 116.535156 963.101562 116.605469 C 963.230469 116.957031 963.25 117.34375 963.15625 117.714844 C 963.097656 117.945312 962.996094 118.160156 962.859375 118.347656 C 962.988281 118.601562 963.0625 118.886719 963.0625 119.191406 C 963.15625 119.429688 963.210938 119.683594 963.203125 119.941406 L 963.082031 130.054688 C 963.082031 130.308594 963.027344 130.566406 962.929688 130.796875 L 962.929688 131.386719 C 962.929688 131.59375 962.894531 131.796875 962.835938 131.984375 L 962.835938 132.902344 C 962.835938 133.820312 962.183594 134.585938 961.316406 134.761719 L 961.316406 135.308594 C 961.316406 135.859375 961.082031 136.355469 960.707031 136.703125 L 960.707031 137.480469 C 960.707031 138.527344 959.859375 139.378906 958.804688 139.378906 L 956.34375 139.378906 L 956.34375 140.390625 C 956.34375 140.875 956.15625 141.34375 955.824219 141.695312 L 955.199219 142.347656 L 955.199219 143.550781 C 955.199219 144.597656 954.355469 145.449219 953.308594 145.449219 L 942.242188 145.449219 C 941.402344 145.449219 940.683594 144.898438 940.4375 144.140625 C 940.1875 143.960938 939.980469 143.726562 939.839844 143.441406 C 939.839844 143.441406 937.90625 140.136719 930.410156 138.792969 C 929.511719 138.628906 928.855469 137.84375 928.855469 136.925781 L 928.855469 136.273438 L 923.488281 134.753906 C 923.460938 134.746094 923.429688 134.738281 923.402344 134.730469 C 923.390625 134.734375 923.367188 134.738281 923.363281 134.742188 L 917.9375 136.273438 L 917.9375 136.925781 C 917.9375 137.84375 917.277344 138.628906 916.378906 138.792969 C 908.886719 140.136719 906.953125 143.445312 906.933594 143.476562 C 906.8125 143.699219 906.644531 143.894531 906.449219 144.054688 L 906.449219 144.511719 C 906.449219 144.679688 906.421875 144.839844 906.382812 144.992188 C 906.421875 145.144531 906.449219 145.308594 906.449219 145.472656 L 906.449219 150.835938 C 906.449219 151.152344 906.367188 151.453125 906.226562 151.714844 L 906.226562 157.335938 C 906.226562 158.382812 905.378906 159.230469 904.332031 159.230469 L 893.085938 159.230469 C 892.578125 159.230469 892.09375 159.027344 891.730469 158.664062 C 891.382812 158.304688 891.179688 157.816406 891.1875 157.308594 C 891.890625 107.289062 890.953125 84.070312 890.742188 79.714844 L 889.078125 78.195312 C 888.667969 77.820312 888.445312 77.28125 888.46875 76.726562 L 888.957031 63.113281 C 872.804688 64.050781 869.632812 76.472656 869.292969 78.082031 L 869.292969 114.894531 C 869.292969 115.941406 868.4375 116.789062 867.390625 116.789062 L 853.679688 116.789062 C 853.292969 116.789062 852.9375 116.671875 852.625 116.472656 C 852.070312 119.828125 851.15625 128.109375 850.867188 147.246094 C 850.855469 148.28125 850.007812 149.117188 848.976562 149.117188 L 839.445312 149.117188 C 838.398438 149.117188 837.546875 148.265625 837.546875 147.21875 L 837.546875 55.246094 C 836.605469 54.878906 834.773438 54.316406 831.746094 53.976562 C 831.007812 53.894531 830.410156 53.394531 830.175781 52.730469 C 829.207031 52.613281 827.8125 52.488281 826.171875 52.472656 C 826.050781 52.472656 825.929688 52.457031 825.816406 52.433594 C 825.695312 52.457031 825.574219 52.472656 825.453125 52.472656 C 823.824219 52.488281 822.425781 52.613281 821.460938 52.730469 C 821.21875 53.394531 820.621094 53.894531 819.886719 53.976562 C 816.867188 54.316406 815.042969 54.875 814.085938 55.25 L 814.085938 157.335938 C 814.085938 158.382812 813.234375 159.230469 812.1875 159.230469 L 802.640625 159.230469 C 801.59375 159.230469 800.738281 158.382812 800.738281 157.335938 L 800.738281 80.375 L 776.992188 96.988281 L 776.992188 141.84375 C 776.992188 142.890625 776.144531 143.742188 775.097656 143.742188 L 763.871094 143.742188 C 762.824219 143.742188 761.972656 142.890625 761.972656 141.84375 L 761.972656 82.125 L 760.320312 82.125 C 759.273438 82.125 758.425781 81.277344 758.425781 80.230469 L 758.425781 77.050781 L 756.769531 77.050781 C 755.71875 77.050781 754.875 76.203125 754.875 75.15625 L 754.875 71.980469 L 753.214844 71.980469 C 752.167969 71.980469 751.324219 71.132812 751.324219 70.085938 L 751.324219 66.910156 L 749.671875 66.910156 C 748.621094 66.910156 747.769531 66.0625 747.769531 65.011719 L 747.769531 61.839844 L 746.609375 61.839844 C 745.5625 61.839844 744.714844 60.992188 744.714844 59.941406 L 744.714844 59.402344 C 744.199219 59.257812 743.769531 58.902344 743.535156 58.4375 C 743.292969 58.902344 742.863281 59.257812 742.351562 59.402344 L 742.351562 59.941406 C 742.351562 60.992188 741.5 61.839844 740.460938 61.839844 L 739.289062 61.839844 L 739.289062 65.011719 C 739.289062 66.0625 738.445312 66.910156 737.398438 66.910156 L 735.746094 66.910156 L 735.746094 70.085938 C 735.746094 71.132812 734.894531 71.980469 733.84375 71.980469 L 732.1875 71.980469 L 732.1875 75.15625 C 732.1875 76.203125 731.339844 77.050781 730.292969 77.050781 L 728.640625 77.050781 L 728.640625 80.230469 C 728.640625 81.277344 727.789062 82.125 726.742188 82.125 L 725.089844 82.125 L 725.089844 153.226562 C 725.089844 154.273438 724.238281 155.121094 723.191406 155.121094 L 710.714844 155.121094 C 709.667969 155.121094 708.816406 154.273438 708.816406 153.226562 L 708.816406 87.472656 L 687.953125 87.472656 L 687.953125 133.785156 C 687.953125 134.832031 687.101562 135.679688 686.050781 135.679688 L 673.28125 135.679688 C 672.242188 135.679688 671.390625 134.832031 671.390625 133.785156 L 671.390625 58.3125 L 670.710938 56.980469 C 670.578125 56.714844 670.507812 56.421875 670.507812 56.121094 L 670.507812 54.894531 L 669.210938 54.894531 C 668.164062 54.894531 667.3125 54.042969 667.3125 52.996094 L 667.3125 46.929688 L 657.386719 29.28125 L 647.460938 46.929688 L 647.460938 52.996094 C 647.460938 54.042969 646.613281 54.894531 645.566406 54.894531 L 644.265625 54.894531 L 644.265625 56.121094 C 644.265625 56.421875 644.195312 56.714844 644.058594 56.980469 L 643.386719 58.3125 L 643.386719 150.378906 C 643.386719 151.425781 642.535156 152.277344 641.492188 152.277344 L 626.59375 152.277344 C 625.542969 152.277344 624.699219 151.425781 624.699219 150.378906 L 624.699219 66.652344 L 624.09375 66.652344 C 623.046875 66.652344 622.195312 65.804688 622.195312 64.757812 L 622.195312 60.148438 C 621.785156 59.824219 621.515625 59.332031 621.480469 58.773438 C 621.472656 58.6875 621.449219 58.578125 621.425781 58.472656 C 621.105469 58.691406 620.722656 58.820312 620.339844 58.820312 L 619.511719 58.820312 C 618.460938 58.820312 617.613281 57.972656 617.613281 56.925781 L 617.613281 55.621094 C 617.480469 55.363281 617.40625 55.070312 617.40625 54.761719 L 617.40625 48.789062 C 617.40625 48.628906 617.425781 48.46875 617.46875 48.320312 C 617.425781 48.171875 617.40625 48.011719 617.40625 47.851562 L 617.40625 47.65625 C 617.382812 47.65625 617.363281 47.660156 617.34375 47.660156 L 610.242188 47.660156 C 610.222656 47.660156 610.199219 47.65625 610.179688 47.65625 L 610.179688 47.851562 C 610.179688 48.011719 610.160156 48.171875 610.121094 48.320312 C 610.160156 48.46875 610.179688 48.628906 610.179688 48.789062 L 610.179688 54.761719 C 610.179688 55.070312 610.105469 55.363281 609.976562 55.621094 L 609.976562 56.925781 C 609.976562 57.972656 609.125 58.820312 608.078125 58.820312 L 607.246094 58.820312 C 606.855469 58.820312 606.476562 58.699219 606.160156 58.480469 C 606.128906 58.601562 606.109375 58.714844 606.101562 58.777344 C 606.066406 59.441406 605.6875 60.007812 605.140625 60.316406 C 604.816406 60.890625 604.199219 61.277344 603.492188 61.277344 L 589.1875 61.277344 C 588.480469 61.277344 587.863281 60.890625 587.535156 60.316406 C 586.992188 60.007812 586.613281 59.441406 586.574219 58.777344 C 586.566406 58.6875 586.542969 58.578125 586.515625 58.476562 C 586.199219 58.691406 585.816406 58.820312 585.433594 58.820312 L 584.601562 58.820312 C 583.554688 58.820312 582.703125 57.972656 582.703125 56.925781 L 582.703125 55.621094 C 582.574219 55.363281 582.496094 55.070312 582.496094 54.761719 L 582.496094 48.789062 C 582.496094 48.628906 582.515625 48.46875 582.558594 48.320312 C 582.515625 48.171875 582.496094 48.011719 582.496094 47.851562 L 582.496094 47.65625 C 582.480469 47.65625 582.457031 47.660156 582.4375 47.660156 L 575.335938 47.660156 C 575.316406 47.660156 575.292969 47.65625 575.269531 47.65625 L 575.269531 47.851562 C 575.269531 48.011719 575.253906 48.171875 575.214844 48.320312 C 575.253906 48.46875 575.269531 48.628906 575.269531 48.789062 L 575.269531 54.761719 C 575.269531 55.070312 575.199219 55.363281 575.066406 55.621094 L 575.066406 56.925781 C 575.066406 57.972656 574.21875 58.820312 573.167969 58.820312 L 572.335938 58.820312 C 571.945312 58.820312 571.570312 58.699219 571.253906 58.480469 C 571.222656 58.601562 571.199219 58.714844 571.195312 58.777344 C 571.164062 59.335938 570.890625 59.824219 570.480469 60.148438 L 570.480469 64.757812 C 570.480469 65.804688 569.632812 66.652344 568.585938 66.652344 L 567.980469 66.652344 L 567.980469 140.113281 C 567.980469 141.160156 567.132812 142.011719 566.085938 142.011719 L 553.558594 142.011719 C 552.515625 142.011719 551.664062 141.160156 551.664062 140.113281 L 551.664062 70.539062 L 550.980469 70.539062 C 549.980469 70.539062 549.160156 69.761719 549.085938 68.78125 L 527.542969 68.78125 C 527.472656 69.761719 526.65625 70.539062 525.652344 70.539062 L 524.96875 70.539062 L 524.96875 150.378906 C 524.96875 151.425781 524.121094 152.277344 523.074219 152.277344 L 511.671875 152.277344 C 510.625 152.277344 509.777344 151.425781 509.777344 150.378906 L 509.777344 89.667969 C 509.777344 77.050781 508.164062 65.949219 506.671875 58.378906 L 506.671875 64.820312 C 506.671875 65.871094 505.824219 66.71875 504.777344 66.71875 L 491.5 66.71875 C 490.453125 66.71875 489.605469 65.871094 489.605469 64.820312 L 489.605469 58.394531 C 488.113281 65.964844 486.496094 77.070312 486.496094 89.667969 L 486.496094 136.046875 C 486.496094 137.09375 485.648438 137.945312 484.601562 137.945312 L 472.242188 137.945312 C 471.195312 137.945312 470.347656 137.09375 470.347656 136.046875 L 470.347656 80.898438 C 469.746094 80.578125 469.335938 79.945312 469.335938 79.21875 L 469.335938 43.78125 L 467.382812 40.1875 C 466.714844 40.128906 466.121094 39.71875 465.832031 39.105469 L 463.269531 33.65625 C 462.644531 33.554688 462.109375 33.144531 461.847656 32.558594 L 454.976562 17.128906 C 454.777344 17.085938 454.589844 17.007812 454.421875 16.910156 C 454.253906 17.007812 454.066406 17.085938 453.871094 17.128906 L 446.996094 32.558594 C 446.734375 33.144531 446.199219 33.554688 445.578125 33.65625 L 443.015625 39.105469 C 442.726562 39.71875 442.132812 40.128906 441.464844 40.1875 L 439.507812 43.78125 L 439.507812 79.21875 C 439.507812 79.945312 439.101562 80.578125 438.5 80.894531 L 438.5 142.628906 C 438.5 143.238281 438.203125 143.8125 437.707031 144.167969 C 437.210938 144.523438 436.570312 144.621094 435.992188 144.421875 C 428.269531 141.800781 421.785156 140.050781 421.71875 140.03125 C 420.890625 139.808594 420.316406 139.058594 420.316406 138.199219 L 420.316406 96.480469 L 412.058594 94.078125 L 400.480469 102.613281 L 400.480469 135.140625 C 400.480469 135.832031 400.105469 136.46875 399.496094 136.800781 L 395.601562 138.941406 L 395.601562 144.898438 C 395.601562 145.898438 394.820312 146.730469 393.824219 146.789062 L 384.445312 147.363281 C 384.292969 147.371094 384.144531 147.367188 383.996094 147.339844 L 383.492188 147.25 C 382.589844 147.089844 381.929688 146.300781 381.929688 145.382812 L 381.929688 81.726562 L 381.777344 81.726562 C 380.730469 81.726562 379.882812 80.878906 379.882812 79.832031 L 379.882812 77.1875 L 373.039062 77.1875 C 371.992188 77.1875 371.144531 76.339844 371.144531 75.292969 L 371.144531 69.273438 C 371.164062 68.769531 371.0625 67.546875 370.433594 66.882812 C 370.222656 66.660156 369.839844 66.363281 368.953125 66.351562 C 368.917969 66.351562 368.882812 66.347656 368.84375 66.351562 C 367.953125 66.363281 367.570312 66.664062 367.363281 66.886719 C 366.710938 67.582031 366.636719 68.871094 366.652344 69.175781 L 366.652344 75.292969 C 366.652344 76.339844 365.808594 77.1875 364.757812 77.1875 L 357.917969 77.1875 L 357.917969 79.832031 C 357.917969 80.878906 357.066406 81.726562 356.019531 81.726562 L 355.867188 81.726562 L 355.867188 138.144531 C 355.867188 138.804688 355.527344 139.414062 354.964844 139.757812 C 354.40625 140.105469 353.703125 140.132812 353.117188 139.835938 L 343.257812 134.855469 C 342.621094 134.535156 342.214844 133.878906 342.214844 133.164062 L 342.214844 43.878906 C 341.613281 43.558594 341.203125 42.925781 341.203125 42.199219 L 341.203125 41.160156 L 337.914062 41.160156 C 336.867188 41.160156 336.015625 40.3125 336.015625 39.261719 L 336.015625 33.855469 C 335.265625 33.675781 334.6875 33.050781 334.578125 32.273438 L 331.523438 32.273438 C 330.472656 32.273438 329.628906 31.425781 329.628906 30.378906 L 329.628906 24.675781 C 329.117188 24.523438 328.699219 24.164062 328.472656 23.695312 C 328.425781 23.695312 328.375 23.691406 328.328125 23.691406 C 328.285156 23.691406 328.234375 23.695312 328.183594 23.695312 C 327.953125 24.164062 327.539062 24.523438 327.03125 24.675781 L 327.03125 30.378906 C 327.03125 31.425781 326.183594 32.273438 325.132812 32.273438 L 322.078125 32.273438 C 321.96875 33.050781 321.390625 33.675781 320.644531 33.855469 L 320.644531 39.261719 C 320.644531 40.3125 319.792969 41.160156 318.746094 41.160156 L 315.453125 41.160156 L 315.453125 42.199219 C 315.453125 42.925781 315.042969 43.558594 314.441406 43.878906 L 314.441406 153.75 C 314.441406 154.796875 313.59375 155.648438 312.546875 155.648438 L 304.773438 155.648438 C 303.761719 155.648438 302.925781 154.855469 302.875 153.84375 L 299.96875 95.527344 L 299.890625 95.527344 C 298.871094 95.527344 298.035156 94.722656 297.992188 93.703125 L 297.742188 87.390625 L 296.914062 86.851562 L 292.605469 86.851562 C 291.558594 86.851562 290.710938 86 290.710938 84.953125 L 290.710938 77.960938 L 288.105469 77.960938 C 287.054688 77.960938 286.207031 77.113281 286.207031 76.066406 L 286.179688 73.226562 C 285.773438 72.867188 285.539062 72.351562 285.539062 71.804688 L 285.539062 63.972656 L 285.355469 63.835938 L 285.167969 63.976562 L 285.167969 71.804688 C 285.167969 72.351562 284.933594 72.867188 284.527344 73.226562 L 284.5 76.066406 C 284.5 77.113281 283.652344 77.960938 282.605469 77.960938 L 279.984375 77.960938 L 279.984375 84.953125 C 279.984375 86 279.136719 86.851562 278.089844 86.851562 L 273.78125 86.851562 L 272.953125 87.390625 L 272.703125 93.703125 C 272.660156 94.722656 271.824219 95.527344 270.804688 95.527344 L 270.738281 95.527344 L 267.285156 164.804688 C 267.234375 165.8125 266.402344 166.605469 265.390625 166.605469 L 258.160156 166.605469 C 257.109375 166.605469 256.261719 165.757812 256.261719 164.710938 L 256.261719 152.863281 L 252.207031 152.730469 C 251.1875 152.695312 250.375 151.859375 250.375 150.835938 L 250.375 124.082031 L 246.398438 123.8125 C 245.402344 123.742188 244.632812 122.917969 244.632812 121.917969 L 244.632812 95.894531 L 240.832031 95.484375 C 239.867188 95.382812 239.136719 94.570312 239.136719 93.601562 L 239.136719 66.789062 C 239 66.523438 238.921875 66.226562 238.921875 65.910156 L 238.921875 64.386719 L 235.050781 62.203125 C 234.457031 61.867188 234.085938 61.234375 234.085938 60.550781 L 234.085938 58.125 L 219.679688 56.03125 L 219.679688 144.058594 C 219.679688 145.105469 218.828125 145.953125 217.78125 145.953125 L 209.308594 145.953125 C 208.261719 145.953125 207.414062 145.105469 207.414062 144.058594 L 207.414062 97.097656 C 207.414062 96.753906 207.507812 96.414062 207.6875 96.121094 C 207.511719 95.832031 207.414062 95.496094 207.414062 95.140625 L 207.414062 85.472656 C 207.414062 85.222656 207.460938 84.976562 207.554688 84.75 L 207.828125 84.085938 L 207.828125 77.265625 C 207.828125 76.957031 207.90625 76.65625 208.046875 76.382812 L 185.476562 76.382812 C 185.621094 76.65625 185.695312 76.957031 185.695312 77.265625 L 185.695312 84.085938 L 185.96875 84.746094 C 186.0625 84.976562 186.109375 85.222656 186.109375 85.472656 L 186.109375 95.140625 C 186.109375 95.496094 186.011719 95.832031 185.839844 96.121094 C 186.015625 96.414062 186.109375 96.753906 186.109375 97.097656 L 186.109375 155.238281 C 186.109375 155.589844 186.015625 155.921875 185.847656 156.203125 L 185.871094 156.296875 C 185.914062 156.457031 185.9375 156.621094 185.9375 156.785156 L 185.9375 163.65625 C 185.9375 163.921875 185.882812 164.171875 185.785156 164.398438 L 185.894531 164.917969 C 185.921875 165.046875 185.9375 165.179688 185.9375 165.308594 L 185.9375 166.816406 C 185.9375 167.867188 185.085938 168.714844 184.039062 168.714844 L 178.789062 168.714844 C 177.742188 168.714844 176.890625 167.867188 176.890625 166.816406 L 176.890625 159.800781 L 174.929688 159.800781 C 173.882812 159.800781 173.035156 158.949219 173.035156 157.902344 L 173.035156 147.597656 C 173.035156 147.292969 173.109375 146.992188 173.25 146.722656 L 174.101562 145.082031 L 169.089844 145.082031 C 168.980469 145.082031 168.871094 145.070312 168.765625 145.050781 C 168.414062 144.992188 160.109375 143.484375 149.714844 135.980469 C 148.628906 135.800781 145.734375 135.3125 142.679688 134.71875 C 142.648438 134.714844 142.617188 134.707031 142.589844 134.703125 C 138.789062 133.960938 136.027344 133.316406 134.378906 132.789062 C 130.746094 131.589844 127.726562 129.699219 126.679688 129 C 125.910156 128.863281 124.328125 128.558594 123.140625 128.164062 C 121.9375 128.25 118.765625 128.367188 116.472656 127.46875 C 115.554688 127.792969 114.167969 128.136719 112.425781 128.136719 C 110.691406 128.136719 109.304688 127.792969 108.386719 127.46875 C 106.105469 128.367188 102.929688 128.25 101.726562 128.164062 C 100.527344 128.5625 98.921875 128.871094 98.15625 129.003906 C 97.117188 129.691406 94.015625 131.628906 90.484375 132.785156 C 88.835938 133.320312 86.070312 133.964844 82.261719 134.703125 C 80.296875 135.085938 78.40625 135.433594 77 135.660156 C 76.199219 135.808594 75.554688 135.914062 75.152344 135.980469 C 64.757812 143.484375 56.457031 144.992188 56.105469 145.050781 C 55.996094 145.070312 55.886719 145.082031 55.777344 145.082031 L 50.765625 145.082031 L 51.621094 146.722656 C 51.757812 146.992188 51.832031 147.292969 51.832031 147.597656 L 51.832031 157.902344 C 51.832031 158.949219 50.984375 159.800781 49.9375 159.800781 L 47.964844 159.800781 L 47.964844 175.152344 C 47.964844 179.683594 44.277344 183.371094 39.746094 183.371094 " fill-opacity="1" fill-rule="nonzero"/></g><g clip-path="url(#54f918a3d9)"><path stroke-linecap="butt" transform="matrix(0.748981, 0, 0, 0.748981, 36.357216, 180.38843)" fill="none" stroke-linejoin="miter" d="M -0.0023329 2.000437 L 1365.999527 2.000437 " stroke="#000000" stroke-width="4" stroke-opacity="1" stroke-miterlimit="4"/></g></svg>