<?xml version="1.0" encoding="utf-8"?>
<!-- Generator: Adobe Adobe Illustrator 29.2.0, SVG Export Plug-In . SVG Version: 6.00 Build 0)  -->
<svg version="1.1" id="Layer_1" xmlns="http://www.w3.org/2000/svg" xmlns:xlink="http://www.w3.org/1999/xlink" x="0px" y="0px"
	 width="1366px" height="250.89px" viewBox="0 0 1366 250.89" style="enable-background:new 0 0 1366 250.89;" xml:space="preserve"
	>
<style type="text/css">
	.st0{clip-path:url(#SVGID_00000122722865968509208140000012746148853369080456_);}
	.st1{clip-path:url(#SVGID_00000114777533786709787900000017482245755439295901_);}
	.st2{fill:none;stroke:#000000;stroke-width:3.9946;stroke-miterlimit:3.9946;}
</style>
<g>
	<g>
		<defs>
			<rect id="SVGID_1_" x="-46.62" y="6.23" width="1459.23" height="244.49"/>
		</defs>
		<clipPath id="SVGID_00000041285441661589619580000002148698735525693867_">
			<use xlink:href="#SVGID_1_"  style="overflow:visible;"/>
		</clipPath>
		<g style="clip-path:url(#SVGID_00000041285441661589619580000002148698735525693867_);">
			<path d="M394.49,31.51v0.07C394.49,31.56,394.49,31.53,394.49,31.51z M335.47,78.17l-0.01,0.1
				C335.47,78.25,335.47,78.21,335.47,78.17z M330.76,78.23c0,0.04,0,0.07,0,0.1V78.23z M1257.76,115.05l-0.05,0.07
				C1257.73,115.1,1257.74,115.08,1257.76,115.05z M1256.94,127.2c0,0.02-0.01,0.06-0.02,0.09
				C1256.93,127.26,1256.93,127.24,1256.94,127.2z M1252.79,127.23c0,0.04,0.01,0.07,0.02,0.1
				C1252.8,127.29,1252.79,127.26,1252.79,127.23z M1239.33,159.54h-0.01H1239.33z M1239.32,159.54c-0.01,0.01-0.01,0.01-0.01,0.01
				C1239.32,159.55,1239.32,159.55,1239.32,159.54z M1270.41,159.55c0,0.01,0,0.01,0.01,0.01
				C1270.41,159.55,1270.41,159.55,1270.41,159.55z M1239.32,159.55c0,0.01-0.01,0.01-0.01,0.01S1239.32,159.56,1239.32,159.55z
				 M1270.41,159.56c0,0,0,0.01,0.01,0.01C1270.41,159.57,1270.41,159.56,1270.41,159.56z M1235.66,162.62
				c-0.01,0.01-0.02,0.02-0.04,0.02C1235.64,162.63,1235.65,162.62,1235.66,162.62z M1274.06,162.61c0.01,0.02,0.04,0.03,0.05,0.04
				C1274.1,162.64,1274.07,162.63,1274.06,162.61z M1234.89,162.68l0.04,0.07C1234.92,162.73,1234.9,162.7,1234.89,162.68z
				 M1273.33,164.87c-0.01,0-0.01,0.01-0.01,0.01C1273.32,164.87,1273.32,164.87,1273.33,164.87z M1236.39,164.87
				c0.01,0,0.01,0.01,0.02,0.01C1236.4,164.87,1236.4,164.87,1236.39,164.87z M1236.41,164.89L1236.41,164.89L1236.41,164.89z
				 M1273.3,164.88c0,0.01,0,0.01,0,0.01S1273.3,164.89,1273.3,164.88z M1233.7,181.44h0.02H1233.7z M1231.68,184.24h0.02H1231.68z
				 M5.45,250.72h-49.54c-1.4,0-2.53-1.14-2.53-2.53c0-1.4,1.14-2.53,2.53-2.53H5.45c3.25,0,5.9-2.65,5.9-5.9v-23
				c0-1.4,1.14-2.53,2.53-2.53h2.63v-10.59l-1.48-2.86c-0.19-0.36-0.29-0.76-0.29-1.17v-1.77c0-1.81,1.34-3.23,3.05-3.23h8.79
				c1.47-0.31,11.48-2.66,23.59-11.52c0.33-0.24,0.71-0.4,1.1-0.46c0.02,0,1.19-0.18,2.99-0.51c1.88-0.31,4.34-0.76,6.91-1.26
				c4.81-0.93,8.39-1.77,10.36-2.4c4.58-1.5,8.58-4.16,9.33-4.67c0.04-0.03,0.16-0.1,0.2-0.12c0.28-0.17,0.59-0.29,0.91-0.34
				c0.92-0.15,3.58-0.64,4.86-1.14c0.37-0.15,0.77-0.2,1.17-0.16c1.69,0.17,4.35,0.15,6.17-0.27v-4.32c0-1.52,1.2-2.75,2.68-2.75
				c1.49,0,2.7,1.23,2.7,2.75v4.23c0.73,0.18,1.69,0.34,2.8,0.34c1.12,0,2.08-0.15,2.82-0.33v-4.23c0-1.52,1.2-2.75,2.68-2.75
				c1.48,0,2.68,1.23,2.68,2.75v4.31c1.83,0.42,4.49,0.44,6.19,0.27c0.4-0.04,0.8,0.01,1.17,0.16c1.29,0.5,3.94,0.99,4.85,1.14
				c0.32,0.05,0.63,0.17,0.91,0.34c0.06,0.04,0.2,0.12,0.26,0.17c0.03,0.02,0.12,0.09,0.15,0.11c0.96,0.65,4.66,3.04,9.13,4.52
				c1.95,0.62,5.49,1.45,10.24,2.38c0.04,0.01,0.08,0.01,0.12,0.02c5.09,0.99,9.87,1.76,9.92,1.77c0.4,0.06,0.77,0.22,1.09,0.46
				c12.1,8.85,22.09,11.2,23.59,11.52h8.79c1.71,0,3.05,1.42,3.05,3.23v1.77c0,0.41-0.1,0.81-0.29,1.17l-1.48,2.86v10.59h2.61
				c1.4,0,2.53,1.13,2.53,2.53v9.36h1.78l-0.02-0.07c-0.04-0.17-0.05-0.34-0.05-0.52v-1.09c0-0.38,0.08-0.73,0.23-1.06v-7.78
				l-0.15-0.56c-0.06-0.21-0.08-0.43-0.08-0.65v-1.18c0-0.54,0.17-1.05,0.46-1.46v-75.17c-0.3-0.43-0.46-0.94-0.46-1.46v-2.04
				c0-0.55,0.17-1.05,0.46-1.46v-10.93l-0.36-0.88c-0.12-0.3-0.19-0.64-0.19-0.96v-8.75l-0.69-0.92c-0.33-0.44-0.51-0.97-0.51-1.53
				v-2.77c0-0.96,0.55-1.84,1.41-2.27c0.87-0.43,1.9-0.32,2.66,0.27l0.18,0.14h33.53l0.18-0.14c0.76-0.59,1.79-0.69,2.66-0.27
				c0.86,0.43,1.41,1.31,1.41,2.27v2.77c0,0.55-0.18,1.08-0.51,1.53l-0.69,0.92v8.75c0,0.33-0.06,0.66-0.19,0.96l-0.36,0.88v10.93
				c0.29,0.41,0.46,0.92,0.46,1.46v2.04c0,0.53-0.16,1.04-0.46,1.46v59.19h6.23V78.01c0-0.73,0.32-1.43,0.88-1.92
				c0.56-0.47,1.3-0.69,2.02-0.59l24.27,3.53c1.24,0.18,2.17,1.25,2.17,2.51v3.95l5.16,2.91c0.8,0.45,1.29,1.29,1.29,2.21v2.37
				c0.19,0.35,0.29,0.75,0.29,1.17v34.61l5.07,0.55c1.29,0.14,2.26,1.22,2.26,2.51v34.61l5.3,0.36c1.32,0.09,2.35,1.19,2.35,2.52
				v35.59l5.41,0.18c1.36,0.05,2.44,1.16,2.44,2.53v15.71h4.71l4.6-92.37c0.07-1.34,1.18-2.4,2.53-2.4h0.07l0.29-7.3
				c0.04-0.82,0.46-1.57,1.15-2.02l2.83-1.84c0.41-0.27,0.89-0.41,1.38-0.41h3.96v-9.32c0-1.4,1.13-2.53,2.53-2.53h3.51l0.03-2.59
				c0.01-0.71,0.32-1.39,0.85-1.86V90.26c0-0.8,0.37-1.55,1.01-2.02l1.58-1.19l0.19-8.93c0-1.43,1.21-2.65,2.69-2.65
				c1.5,0,2.72,1.21,2.72,2.7l0.21,9.17l1.19,0.9c0.64,0.47,1.01,1.22,1.01,2.02v10.41c0.52,0.47,0.83,1.15,0.84,1.86l0.03,2.59
				h3.49c1.4,0,2.53,1.14,2.53,2.53v9.32h3.96c0.49,0,0.97,0.14,1.38,0.41l2.83,1.84c0.69,0.45,1.11,1.2,1.15,2.02l0.37,7.3
				c1.35,0,2.46,1.06,2.53,2.4l3.88,77.76h5.43V62.49c0-0.97,0.55-1.82,1.35-2.24v-1.68c0-1.4,1.14-2.53,2.53-2.53h4.39v-7.14
				c0-1.2,0.83-2.2,1.95-2.46c0.15-1.27,1.21-2.24,2.52-2.24h4.05V36.7c0-1.15,0.77-2.11,1.8-2.42c-0.01-0.06-0.01-0.12-0.01-0.19
				v-0.47c0-0.62,0.22-1.19,0.6-1.63v-0.51c0.01-1.39,1.19-2.55,2.58-2.55c0.69,0,1.33,0.29,1.79,0.74
				c0.48-0.48,1.14-0.79,1.84-0.79c1.44,0,2.61,1.17,2.61,2.61l0.01,0.54c0.34,0.44,0.55,0.98,0.55,1.58v0.47
				c0,0.06,0,0.12-0.01,0.19c1.04,0.31,1.81,1.28,1.81,2.42v7.49h4.05c1.3,0,2.37,0.98,2.52,2.24c1.11,0.26,1.95,1.26,1.95,2.46
				v7.14h4.39c1.4,0,2.53,1.13,2.53,2.53v1.68c0.81,0.42,1.35,1.27,1.35,2.24v119.73l8.09,4.08v-72.37
				c0.02-1.59,0.98-3.23,2.73-3.68v-3.64c0-0.37,0.08-0.72,0.22-1.03v-4.09c0-1.4,1.25-2.65,2.65-2.65c1.45,0,2.63,1.19,2.63,2.65
				v2.59h6.15v-5.49c-0.02-0.29-0.13-4.03,2.31-6.64c0.85-0.91,1.9-1.56,3.1-1.93v-1.18c0-1.4,1.25-2.63,2.65-2.63
				c1.45,0,2.63,1.18,2.63,2.63v1.17c1.21,0.38,2.27,1.04,3.11,1.94c2.44,2.61,2.31,6.34,2.29,6.77l0.01,5.36h6.15v-2.59
				c0-1.4,1.23-2.65,2.64-2.65c1.45,0,2.65,1.19,2.65,2.65v4.09c0.14,0.31,0.22,0.66,0.22,1.03v3.64c1.75,0.45,2.71,2.08,2.73,3.64
				v83.64l8.11-0.49v-7.06c0-0.92,0.5-1.77,1.31-2.21l5.19-2.85v-43.15c0-0.8,0.38-1.56,1.03-2.04l17.48-12.88
				c0.64-0.47,1.45-0.61,2.2-0.4l14.03,4.08c1.08,0.31,1.82,1.3,1.82,2.43v55.6c2.67,0.76,7.93,2.29,14.13,4.32v-81.04
				c0-0.97,0.54-1.81,1.34-2.23V63.96c0-0.43,0.1-0.84,0.31-1.21l3.63-6.66c0.39-0.72,1.09-1.2,1.89-1.3l3.41-7.26
				c0.35-0.74,1.04-1.27,1.83-1.41l9.16-20.55c0.19-0.44,0.51-0.81,0.9-1.07v-2.03c0-0.46,0.12-0.91,0.36-1.3l0.28-0.47V10.08
				c0-0.39,0.09-0.76,0.26-1.1l0.65-1.33c0.43-0.87,1.31-1.42,2.28-1.42s1.85,0.55,2.28,1.42l0.65,1.33
				c0.17,0.34,0.26,0.72,0.26,1.1v10.61l0.28,0.47c0.23,0.39,0.36,0.84,0.36,1.3v2.03c0.39,0.26,0.7,0.62,0.9,1.07l9.16,20.55
				c0.79,0.15,1.48,0.67,1.83,1.41l3.41,7.26c0.8,0.1,1.5,0.58,1.9,1.3l3.62,6.66c0.2,0.37,0.31,0.79,0.31,1.21v45.66
				c0.8,0.43,1.34,1.27,1.34,2.23v73.24h11.42v-59.31c0-31.88,7.35-56.05,7.66-57.06c0.33-1.06,1.31-1.78,2.42-1.78h0.3
				c0.57,0,1.1,0.19,1.53,0.51c1.31,0.09,2.35,1.19,2.35,2.53v20.15h12.64V69.98c0-1.34,1.04-2.44,2.35-2.53
				c0.43-0.32,0.95-0.51,1.53-0.51h0.3c1.11,0,2.09,0.72,2.42,1.78c0.31,1.02,7.66,25.19,7.66,57.06v78.42h10.14V97.75
				c0-1.4,1.14-2.53,2.53-2.53h0.92c0.09-1.31,1.19-2.34,2.52-2.34h33.77c1.33,0,2.43,1.03,2.52,2.34h0.92
				c1.4,0,2.53,1.13,2.53,2.53v92.77h11.64V92.57c0-1.4,1.14-2.53,2.53-2.53h0.8v-5.59c0-1,0.58-1.86,1.42-2.27
				c0.72-1.89,2.35-3.43,4.72-3.31c0.04-0.27,0.13-0.53,0.24-0.77v-5.46c-0.25-0.39-0.4-0.86-0.4-1.36v-1.25
				c0-0.27,0.04-0.53,0.12-0.77c-0.08-0.24-0.12-0.5-0.12-0.77v-1.26c0-0.5,0.15-0.97,0.4-1.36v-0.5c0-1.4,1.14-2.53,2.53-2.53h2.61
				c1.17,0,2.15,0.79,2.44,1.86h4.59c0.3-1.07,1.28-1.86,2.44-1.86h2.61c1.4,0,2.53,1.13,2.53,2.53v0.49
				c0.25,0.39,0.4,0.86,0.4,1.36v1.26c0,0.27-0.05,0.52-0.12,0.77c0.07,0.24,0.12,0.5,0.12,0.77v1.25c0,0.51-0.15,0.97-0.4,1.37
				v5.45c0.12,0.23,0.2,0.49,0.25,0.77c2.4-0.12,4,1.42,4.72,3.31c0.33,0.17,0.63,0.41,0.86,0.7h15.11c0.24-0.29,0.54-0.54,0.87-0.7
				c0.72-1.89,2.36-3.43,4.72-3.31c0.05-0.27,0.13-0.53,0.24-0.77v-5.46c-0.24-0.39-0.4-0.86-0.4-1.36v-1.25
				c0-0.27,0.04-0.53,0.12-0.77c-0.08-0.24-0.12-0.5-0.12-0.77v-1.26c0-0.5,0.15-0.97,0.4-1.36v-0.5c0-1.4,1.14-2.53,2.53-2.53h2.61
				c1.17,0,2.15,0.79,2.44,1.86h4.59c0.29-1.07,1.28-1.86,2.44-1.86h2.61c1.4,0,2.53,1.13,2.53,2.53v0.49
				c0.26,0.4,0.4,0.86,0.4,1.36v1.26c0,0.27-0.04,0.52-0.12,0.77c0.08,0.24,0.12,0.5,0.12,0.77v1.25c0,0.51-0.15,0.97-0.4,1.36v5.45
				c0.12,0.24,0.2,0.5,0.24,0.77c2.39-0.11,4.01,1.42,4.73,3.31c0.84,0.41,1.42,1.28,1.42,2.27v5.59h0.8c1.4,0,2.53,1.13,2.53,2.53
				V204.2h14.8V83.37c0-0.4,0.09-0.79,0.27-1.15l0.9-1.78V75.5c0-0.45,0.12-0.9,0.35-1.29l0.99-1.66c0.45-0.77,1.28-1.24,2.18-1.24
				c0.29-0.05,0.51,0.04,0.74,0.11v-3.28c0-0.43,0.11-0.86,0.32-1.24l13.66-24.29v-5.39c0-0.24,0.04-0.49,0.11-0.73l1.79-5.84
				c0.32-1.06,1.3-1.79,2.41-1.79c1.11,0,2.09,0.72,2.42,1.79l1.78,5.83c0.08,0.24,0.11,0.49,0.11,0.73v5.39l13.66,24.29
				c0.21,0.38,0.32,0.81,0.32,1.24v3.28c0.24-0.07,0.47-0.17,0.74-0.11c0.89,0,1.72,0.47,2.18,1.24l0.98,1.66
				c0.23,0.4,0.36,0.84,0.36,1.29v4.95l0.9,1.78c0.19,0.35,0.28,0.74,0.28,1.15v98.7h11.97v-61.75c0-1.4,1.12-2.53,2.52-2.53h32.89
				c1.39,0,2.53,1.14,2.53,2.53V208h11.58v-94.8c0-1.4,1.13-2.53,2.53-2.53h2.21v-4.23c0-1.4,1.13-2.53,2.53-2.53h2.2v-4.23
				c0-1.4,1.14-2.53,2.53-2.53h2.21v-4.23c0-1.4,1.12-2.53,2.52-2.53h2.2v-4.23c0-1.4,1.13-2.53,2.54-2.53h1.55v-0.63
				c0-1.2,0.83-2.2,1.94-2.46c0.21-0.7,0.7-1.28,1.34-1.58v-4.39c0-0.61,0.22-1.19,0.61-1.65v-3.24c0-1.51,1.22-2.73,2.73-2.73
				c1.5,0,2.73,1.22,2.73,2.73v3.24c0.39,0.45,0.61,1.04,0.61,1.65v4.39c0.64,0.31,1.14,0.88,1.34,1.58
				c1.12,0.26,1.95,1.27,1.95,2.46v0.63h1.55c1.4,0,2.52,1.13,2.52,2.53v4.23h2.2c1.41,0,2.54,1.13,2.54,2.53v4.23h2.2
				c1.4,0,2.53,1.14,2.53,2.53v4.23h2.2c1.4,0,2.53,1.14,2.53,2.53v4.23h2.2c1.4,0,2.53,1.14,2.53,2.53v79.62h9.91v-58.6
				c0-0.82,0.41-1.6,1.08-2.07l35.56-24.88c0.56-0.39,1.26-0.54,1.93-0.41c0.67,0.13,1.26,0.53,1.64,1.1l1.16,1.79
				c0.27,0.41,0.4,0.89,0.4,1.38v102.34h7.68V78.31c0-0.82,0.4-1.59,1.07-2.06c0.29-0.2,2.78-1.84,9.07-2.81
				c0.3-0.8,1-1.42,1.88-1.59c0.11-0.02,2.33-0.45,5.66-0.64l0.04-4.42c-0.39-0.45-0.62-1.03-0.62-1.66v-0.23
				c0-0.52,0.16-1.01,0.43-1.41c-0.26-0.4-0.41-0.88-0.41-1.4v-0.2c0-0.53,0.16-1.02,0.44-1.43c-0.28-0.4-0.43-0.89-0.43-1.41v-0.19
				c0-0.53,0.16-1.02,0.44-1.43c-0.27-0.41-0.43-0.89-0.43-1.42v-0.18c0-0.54,0.17-1.03,0.45-1.44c-0.28-0.41-0.44-0.9-0.44-1.42
				c0-0.56,0.19-1.1,0.5-1.56c-0.3-0.41-0.48-0.93-0.48-1.48c0-0.56,0.18-1.1,0.49-1.55c-0.31-0.42-0.48-0.93-0.48-1.48
				c0-0.56,0.18-1.1,0.49-1.55c-0.31-0.42-0.48-0.93-0.48-1.49c0-0.68,0.28-1.33,0.71-1.82l0.08-10.98
				c0.05-1.55,1.37-2.73,2.78-2.69c1.43,0,2.61,1.15,2.67,2.62l0.08,10.98c0.45,0.46,0.72,1.08,0.72,1.77
				c0,0.56-0.18,1.09-0.48,1.53c0.31,0.42,0.49,0.94,0.49,1.49c0,0.56-0.17,1.09-0.47,1.53c0.31,0.42,0.49,0.94,0.49,1.49
				c0,0.55-0.18,1.09-0.47,1.53c0.3,0.42,0.48,0.93,0.48,1.49c0,0.55-0.18,1.08-0.48,1.53c0.31,0.42,0.48,0.93,0.48,1.49v0.18
				c0,0.53-0.15,1.01-0.43,1.42c0.28,0.41,0.45,0.9,0.45,1.43v0.19c0,0.52-0.16,1.01-0.43,1.41c0.28,0.41,0.44,0.9,0.44,1.43v0.2
				c0,0.52-0.15,1-0.42,1.4c0.27,0.4,0.43,0.89,0.43,1.41v0.23c0,0.63-0.23,1.21-0.61,1.66l0.03,4.42c3.33,0.18,5.55,0.61,5.66,0.64
				c0.89,0.17,1.57,0.79,1.88,1.59c6.3,0.96,8.78,2.6,9.07,2.81c0.67,0.47,1.07,1.24,1.07,2.06v121.67h7.69
				c0.64-36.27,2.99-42.65,3.47-43.56c0.22-0.44,0.57-0.81,1-1.05l3.01-1.69c0.59-0.35,1.32-0.45,2.01-0.24
				c1.07,0.32,1.8,1.3,1.8,2.42v1.02h13.22v-46.8c0-0.15,0.01-0.3,0.03-0.44c0.05-0.24,4.68-24.41,33.87-24.41
				c0.69,0,1.34,0.28,1.82,0.78c0.48,0.49,0.73,1.16,0.71,1.84l-0.71,19.68l2.12,1.94c0.48,0.44,0.78,1.06,0.82,1.72
				c0.02,0.29,1.66,29.7,0.69,102.28h9.9v-6.14c0-0.43,0.1-0.83,0.29-1.18v-4.16c-0.47-0.46-0.77-1.1-0.77-1.82v-1.28
				c0-0.71,0.29-1.35,0.77-1.82v-0.74c0-1.26,0.93-2.3,2.12-2.49c1.49-1.85,5.02-5.07,12.45-6.94c-0.12-0.44-0.12-0.91,0.01-1.36
				c0.24-0.84,0.9-1.49,1.74-1.73l8.6-2.43v-8.32c-0.14-0.35-0.21-0.72-0.21-1.11c0-1.62,1.31-2.95,2.93-2.95
				c1.63,0,2.95,1.32,2.95,2.95c0,0.4-0.08,0.79-0.22,1.14v8.29l8.6,2.44c0.85,0.24,1.51,0.89,1.75,1.73
				c0.13,0.45,0.13,0.93,0.01,1.36c7.43,1.87,10.96,5.09,12.45,6.94c0.77,0.12,1.43,0.59,1.8,1.24l10.02-0.08
				c0-0.65,0.25-1.27,0.7-1.74l0.82-0.87v-2.87c0-1.4,1.14-2.53,2.54-2.53h3.06v-0.37c0-0.84,0.41-1.59,1.04-2.05v-0.35
				c0-0.63,0.24-1.23,0.66-1.7l0.73-0.81c0.19-0.2,0.41-0.38,0.64-0.51c0.02-0.2,0.06-0.4,0.12-0.58v-0.6c0-0.35,0.07-0.7,0.21-1.02
				l0.14-12.03c-0.17-0.16-0.32-0.35-0.45-0.57l-0.67-1.17c-0.77-1.27-0.48-2.92,0.68-3.88c0-0.2,0.02-0.4,0.05-0.6
				c0.14-0.83,0.57-1.56,1.22-2.1c0.55-1.55,1.53-2.16,2.45-2.35v-1.66c-0.46-0.76-0.67-1.79-0.42-3.07
				c0.12-0.59,0.43-1.37,1.17-2.16c0.12-0.51,0.35-1.05,0.71-1.58c-0.54-3.9-0.76-14.81,11.55-21.72c0.22-0.79,0.69-1.62,1.52-2.31
				v-0.07c0-0.56,0.2-1.22,0.67-1.79v-2.27c-0.15-0.4-0.25-0.86-0.2-1.41c0.02-0.14,0.05-0.28,0.08-0.42
				c-0.09-1.14,0.16-2.55,1.39-3.62c0-0.01,0.01-0.02,0.02-0.02c-0.57-0.98-1.14-2.39-0.45-3.83c0.53-1.12,1.68-1.78,2.86-1.66
				c0.38,0.04,0.71,0.15,1.02,0.3c0.3-0.16,0.64-0.26,1.02-0.3c1.21-0.12,2.34,0.54,2.88,1.69c0.66,1.45,0.08,2.85-0.47,3.81
				c0,0.01,0.01,0.01,0.01,0.01c1.15,0.98,1.52,2.39,1.41,3.66c0.03,0.13,0.06,0.26,0.06,0.39c0.06,0.54-0.04,1.01-0.19,1.4v2.28
				c0.44,0.53,0.65,1.14,0.67,1.66v0.21c0.84,0.69,1.31,1.53,1.53,2.32c12.32,6.91,12.08,17.83,11.55,21.72
				c0.35,0.53,0.58,1.06,0.7,1.57c0.73,0.79,1.03,1.56,1.15,2.12c0.28,1.32,0.05,2.35-0.41,3.09v1.67c0.93,0.2,1.91,0.81,2.46,2.36
				c0.64,0.52,1.07,1.26,1.21,2.09c0.04,0.21,0.05,0.41,0.05,0.6c1.13,0.96,1.42,2.55,0.72,3.83l-0.72,1.24
				c-0.12,0.2-0.27,0.39-0.44,0.55l0.14,11.99c0.16,0.33,0.23,0.69,0.23,1.06v0.66c0.05,0.17,0.08,0.34,0.1,0.52
				c0.25,0.14,0.47,0.32,0.66,0.54l0.72,0.81c0.42,0.46,0.64,1.06,0.64,1.68v0.33c0.65,0.46,1.07,1.21,1.07,2.06v0.37h3.06
				c1.4,0,2.53,1.13,2.53,2.53v2.87l0.83,0.87c0.45,0.47,0.7,1.09,0.7,1.74v0.08h10c0.38-0.66,1.04-1.13,1.81-1.25
				c1.49-1.85,5.02-5.07,12.44-6.94c-0.12-0.44-0.12-0.91,0.01-1.36c0.24-0.84,0.9-1.49,1.73-1.73l8.63-2.44v-8.29
				c-0.15-0.35-0.22-0.74-0.22-1.14c0-1.62,1.32-2.95,2.93-2.95c1.62,0,2.95,1.32,2.95,2.95c0,0.4-0.08,0.79-0.22,1.15v8.28
				l8.62,2.44c0.84,0.23,1.51,0.89,1.73,1.73c0.15,0.45,0.15,0.93,0.02,1.36c7.42,1.87,10.94,5.09,12.44,6.94
				c1.2,0.19,2.13,1.23,2.13,2.49v0.73c0.48,0.46,0.78,1.11,0.78,1.83v1.28c0,0.72-0.3,1.38-0.78,1.83v4.11
				c0.19,0.36,0.29,0.77,0.29,1.21v24.89c0.39,0.44,0.61,1.02,0.61,1.65v4.48c0,3.26,2.65,5.9,5.9,5.9h49.55
				c1.39,0,2.53,1.13,2.53,2.53c0,1.4-1.14,2.53-2.53,2.53h-49.55c-6.04,0-10.96-4.92-10.96-10.96v-2.84
				c-0.38-0.44-0.61-1.02-0.61-1.65v-25.33c-0.19-0.36-0.3-0.77-0.3-1.2v-7.15c0-0.22,0.02-0.44,0.08-0.64
				c-0.06-0.2-0.08-0.42-0.08-0.64v-0.59c-0.29-0.22-0.51-0.51-0.68-0.84c0,0-2.58-4.41-12.55-6.2c-1.21-0.22-2.08-1.27-2.08-2.49
				v-0.87l-7.23-2.04c-0.02-0.01-0.04-0.01-0.05-0.02c-0.02,0.01-0.04,0.01-0.06,0.02l-7.22,2.04v0.87c0,1.22-0.88,2.27-2.09,2.49
				c-9.98,1.79-12.54,6.2-12.57,6.24c-0.19,0.35-0.46,0.65-0.79,0.88c-0.32,1.02-1.28,1.76-2.41,1.76h-14.73
				c-1.4,0-2.53-1.14-2.53-2.53v-1.6l-0.83-0.87c-0.45-0.47-0.7-1.09-0.7-1.74v-1.35h-3.31c-1.4,0-2.52-1.14-2.52-2.53v-1.04
				c-0.51-0.46-0.82-1.12-0.82-1.86v-0.73c-1.16-0.23-2.02-1.26-2.02-2.48v-1.28c-0.07-0.23-0.11-0.48-0.11-0.74v-0.74
				c-0.15-0.33-0.22-0.68-0.22-1.04l-0.17-13.47c0-0.34,0.06-0.68,0.19-0.99c0.01-0.4,0.11-0.79,0.28-1.12
				c-0.18-0.26-0.32-0.54-0.4-0.85c-0.12-0.49-0.09-1.01,0.07-1.47c-0.07-0.1-0.14-0.2-0.2-0.3c-0.74-0.01-1.39-0.22-1.93-0.64
				c-0.97-0.73-1.15-1.75-1.21-2.27c-0.05-0.22-0.09-0.45-0.09-0.68v-4.16c0-0.39,0.09-0.76,0.24-1.08
				c-0.58-0.49-0.91-1.22-0.9-1.97c-0.02-0.02-0.05-0.04-0.07-0.06c-0.75-0.64-1.06-1.65-0.8-2.6c0.11-0.45,2.85-11.49-9.92-17.94
				c-0.9-0.45-1.43-1.39-1.39-2.36c-0.03-0.01-0.05-0.02-0.09-0.04c-0.96-0.38-1.59-1.31-1.59-2.35v-0.31
				c-0.14-0.14-0.24-0.29-0.34-0.45c-0.09,0.16-0.2,0.31-0.33,0.45v0.3c0,1.04-0.62,1.97-1.6,2.35c-0.04,0.02-0.06,0.03-0.1,0.04
				c0.05,0.98-0.49,1.91-1.39,2.36c-12.76,6.45-10.02,17.49-9.89,17.96c0.24,0.95-0.07,1.96-0.83,2.59
				c-0.03,0.03-0.04,0.05-0.07,0.07c0.01,0.74-0.32,1.46-0.91,1.95c0.16,0.33,0.25,0.7,0.25,1.08v4.16c0,0.22-0.04,0.44-0.09,0.66
				c-0.05,0.56-0.23,1.55-1.18,2.29c-0.55,0.42-1.2,0.64-1.95,0.65c-0.06,0.09-0.12,0.19-0.19,0.29c0.17,0.47,0.2,0.98,0.07,1.48
				c-0.08,0.31-0.21,0.59-0.4,0.84c0.17,0.34,0.27,0.72,0.27,1.12c0.12,0.32,0.2,0.66,0.19,1l-0.16,13.48c0,0.34-0.07,0.68-0.2,0.99
				v0.79c0,0.28-0.05,0.55-0.12,0.8v1.22c0,1.22-0.87,2.24-2.03,2.48v0.73c0,0.73-0.31,1.4-0.81,1.86v1.04
				c0,1.4-1.13,2.53-2.54,2.53h-3.28v1.35c0,0.65-0.25,1.27-0.69,1.74l-0.83,0.87v1.6c0,1.4-1.12,2.53-2.52,2.53h-14.76
				c-1.12,0-2.08-0.73-2.41-1.74c-0.33-0.24-0.61-0.55-0.8-0.93c0,0-2.58-4.41-12.57-6.2c-1.2-0.22-2.07-1.27-2.07-2.49v-0.87
				l-7.16-2.03c-0.04-0.01-0.08-0.02-0.11-0.03c-0.02,0.01-0.05,0.01-0.05,0.02l-7.23,2.04v0.87c0,1.22-0.88,2.27-2.08,2.49
				c-9.99,1.79-12.57,6.2-12.59,6.24c-0.16,0.3-0.39,0.56-0.65,0.77v0.61c0,0.22-0.04,0.44-0.09,0.64c0.05,0.2,0.09,0.42,0.09,0.64
				v7.15c0,0.42-0.11,0.82-0.3,1.17v7.49c0,1.4-1.13,2.53-2.53,2.53h-14.99c-0.68,0-1.32-0.27-1.81-0.76
				c-0.46-0.48-0.73-1.13-0.72-1.81c0.94-66.69-0.31-97.65-0.59-103.46l-2.22-2.03c-0.55-0.5-0.84-1.22-0.81-1.96l0.65-18.15
				c-21.54,1.25-25.77,17.81-26.22,19.96v49.08c0,1.4-1.14,2.53-2.54,2.53h-18.28c-0.52,0-0.99-0.16-1.41-0.42
				c-0.74,4.47-1.96,15.52-2.34,41.03c-0.02,1.38-1.15,2.49-2.52,2.49h-12.71c-1.4,0-2.53-1.14-2.53-2.53V79.89
				c-1.26-0.49-3.7-1.24-7.73-1.69c-0.98-0.11-1.78-0.78-2.09-1.66c-1.29-0.16-3.15-0.32-5.34-0.34c-0.16,0-0.32-0.02-0.47-0.05
				c-0.16,0.03-0.32,0.05-0.48,0.05c-2.17,0.02-4.04,0.19-5.32,0.34c-0.32,0.89-1.12,1.55-2.1,1.66c-4.03,0.45-6.46,1.2-7.73,1.7
				v136.11c0,1.4-1.14,2.53-2.53,2.53h-12.73c-1.4,0-2.54-1.13-2.54-2.53V113.39l-31.66,22.15v59.81c0,1.4-1.13,2.53-2.53,2.53
				h-14.97c-1.4,0-2.53-1.14-2.53-2.53v-79.63h-2.2c-1.4,0-2.53-1.13-2.53-2.53v-4.24h-2.21c-1.4,0-2.53-1.13-2.53-2.53v-4.23h-2.21
				c-1.4,0-2.52-1.13-2.52-2.53v-4.23h-2.2c-1.4,0-2.54-1.13-2.54-2.53v-4.23h-1.55c-1.4,0-2.53-1.13-2.53-2.53v-0.72
				c-0.69-0.19-1.26-0.67-1.57-1.29c-0.32,0.62-0.9,1.09-1.58,1.29v0.72c0,1.4-1.14,2.53-2.52,2.53h-1.56v4.23
				c0,1.4-1.12,2.53-2.52,2.53h-2.2v4.23c0,1.4-1.14,2.53-2.54,2.53h-2.21v4.23c0,1.4-1.13,2.53-2.53,2.53h-2.2v4.24
				c0,1.4-1.14,2.53-2.53,2.53h-2.2v94.8c0,1.4-1.14,2.53-2.53,2.53h-16.64c-1.4,0-2.53-1.13-2.53-2.53v-87.67h-27.82v61.75
				c0,1.4-1.14,2.53-2.54,2.53h-17.03c-1.39,0-2.52-1.13-2.52-2.53V83.98l-0.91-1.78c-0.18-0.35-0.27-0.74-0.27-1.15v-1.64h-1.73
				c-1.4,0-2.53-1.14-2.53-2.53V68.8l-13.23-23.53L815.74,68.8v8.09c0,1.4-1.13,2.53-2.53,2.53h-1.73v1.64
				c0,0.4-0.09,0.79-0.28,1.15l-0.9,1.78v122.76c0,1.4-1.14,2.53-2.53,2.53h-19.86c-1.4,0-2.53-1.14-2.53-2.53V95.1h-0.81
				c-1.4,0-2.53-1.13-2.53-2.53v-6.15c-0.55-0.43-0.91-1.09-0.95-1.83c-0.01-0.11-0.04-0.26-0.07-0.4
				c-0.43,0.29-0.94,0.46-1.45,0.46h-1.1c-1.4,0-2.53-1.13-2.53-2.53v-1.74c-0.18-0.34-0.28-0.73-0.28-1.15v-7.96
				c0-0.21,0.03-0.43,0.08-0.62c-0.06-0.2-0.08-0.41-0.08-0.62v-0.26c-0.03,0-0.06,0.01-0.08,0.01h-9.47
				c-0.03,0-0.06-0.01-0.08-0.01v0.26c0,0.21-0.03,0.43-0.08,0.62c0.05,0.2,0.08,0.41,0.08,0.62v7.96c0,0.41-0.1,0.8-0.27,1.15v1.74
				c0,1.4-1.14,2.53-2.53,2.53h-1.11c-0.52,0-1.03-0.16-1.45-0.45c-0.04,0.16-0.07,0.31-0.08,0.4c-0.05,0.89-0.55,1.64-1.28,2.05
				c-0.43,0.77-1.26,1.28-2.2,1.28h-19.07c-0.94,0-1.77-0.52-2.2-1.28c-0.72-0.41-1.23-1.17-1.28-2.05
				c-0.01-0.12-0.04-0.27-0.08-0.4c-0.42,0.29-0.93,0.46-1.44,0.46h-1.11c-1.4,0-2.53-1.13-2.53-2.53v-1.74
				c-0.17-0.34-0.28-0.73-0.28-1.15v-7.96c0-0.21,0.03-0.43,0.08-0.62c-0.06-0.2-0.08-0.41-0.08-0.62v-0.26
				c-0.02,0-0.05,0.01-0.08,0.01h-9.47c-0.03,0-0.06-0.01-0.09-0.01v0.26c0,0.21-0.02,0.43-0.07,0.62c0.05,0.2,0.07,0.41,0.07,0.62
				v7.96c0,0.41-0.09,0.8-0.27,1.15v1.74c0,1.4-1.13,2.53-2.53,2.53h-1.11c-0.52,0-1.02-0.16-1.44-0.45
				c-0.04,0.16-0.07,0.31-0.08,0.4c-0.04,0.74-0.41,1.4-0.95,1.83v6.15c0,1.4-1.13,2.53-2.53,2.53h-0.81v97.95
				c0,1.4-1.13,2.53-2.53,2.53h-16.7c-1.39,0-2.53-1.14-2.53-2.53v-92.77h-0.91c-1.33,0-2.43-1.04-2.53-2.34h-28.72
				c-0.09,1.31-1.18,2.34-2.52,2.34h-0.91v106.45c0,1.4-1.13,2.53-2.53,2.53h-15.2c-1.4,0-2.53-1.14-2.53-2.53v-80.95
				c0-16.82-2.15-31.62-4.14-41.72v8.59c0,1.4-1.13,2.53-2.53,2.53h-17.7c-1.4,0-2.53-1.13-2.53-2.53v-8.57
				c-1.99,10.09-4.15,24.9-4.15,41.7v61.84c0,1.4-1.13,2.53-2.53,2.53h-16.48c-1.4,0-2.53-1.14-2.53-2.53v-73.53
				c-0.8-0.43-1.35-1.27-1.35-2.24V64.6l-2.6-4.79c-0.89-0.08-1.68-0.62-2.07-1.44l-3.42-7.27c-0.83-0.14-1.55-0.68-1.9-1.46
				l-9.16-20.57c-0.27-0.06-0.52-0.16-0.74-0.29c-0.22,0.13-0.47,0.23-0.73,0.29l-9.17,20.57c-0.35,0.78-1.06,1.33-1.89,1.46
				l-3.42,7.27c-0.39,0.82-1.18,1.36-2.07,1.44l-2.61,4.79v47.25c0,0.97-0.54,1.81-1.34,2.23v82.31c0,0.81-0.4,1.58-1.06,2.05
				c-0.66,0.47-1.52,0.6-2.29,0.34c-10.3-3.49-18.94-5.83-19.03-5.85c-1.1-0.3-1.87-1.3-1.87-2.44v-55.62l-11.01-3.2l-15.44,11.38
				v43.37c0,0.92-0.5,1.77-1.31,2.21l-5.19,2.85v7.94c0,1.33-1.04,2.44-2.37,2.52l-12.51,0.77c-0.2,0.01-0.4,0.01-0.6-0.03
				l-0.67-0.12c-1.2-0.21-2.08-1.27-2.08-2.49v-84.88h-0.2c-1.4,0-2.53-1.13-2.53-2.53v-3.53h-9.12c-1.4,0-2.53-1.13-2.53-2.53
				v-8.03c0.03-0.67-0.11-2.3-0.95-3.19c-0.28-0.3-0.79-0.69-1.97-0.71c-0.05,0-0.09-0.01-0.15,0c-1.19,0.02-1.7,0.42-1.97,0.71
				c-0.87,0.93-0.97,2.65-0.95,3.05v8.16c0,1.4-1.12,2.53-2.53,2.53h-9.12v3.53c0,1.4-1.14,2.53-2.53,2.53h-0.2v75.22
				c0,0.88-0.45,1.69-1.2,2.15c-0.74,0.46-1.68,0.5-2.46,0.1l-13.15-6.64c-0.85-0.43-1.39-1.3-1.39-2.26V64.73
				c-0.8-0.43-1.35-1.27-1.35-2.24v-1.39h-4.39c-1.4,0-2.53-1.13-2.53-2.53v-7.21c-1-0.24-1.77-1.07-1.92-2.11h-4.07
				c-1.4,0-2.53-1.13-2.53-2.53v-7.6c-0.68-0.2-1.24-0.68-1.54-1.31c-0.06,0-0.13-0.01-0.19-0.01c-0.06,0-0.12,0.01-0.19,0.01
				c-0.31,0.62-0.86,1.1-1.54,1.31v7.6c0,1.4-1.13,2.53-2.53,2.53h-4.07c-0.15,1.04-0.92,1.87-1.91,2.11v7.21
				c0,1.4-1.14,2.53-2.53,2.53h-4.39v1.39c0,0.97-0.55,1.81-1.35,2.24v146.49c0,1.4-1.13,2.53-2.53,2.53h-10.36
				c-1.35,0-2.46-1.06-2.53-2.41l-3.88-77.76h-0.1c-1.36,0-2.47-1.07-2.53-2.43l-0.33-8.42l-1.1-0.72h-5.74
				c-1.4,0-2.53-1.14-2.53-2.53v-9.32h-3.47c-1.4,0-2.53-1.13-2.53-2.53l-0.04-3.79c-0.54-0.48-0.85-1.17-0.85-1.9V91.52l-0.24-0.18
				l-0.25,0.19v10.44c0,0.73-0.31,1.42-0.85,1.9l-0.04,3.79c0,1.4-1.13,2.53-2.53,2.53h-3.49v9.32c0,1.4-1.13,2.53-2.53,2.53h-5.74
				l-1.1,0.72l-0.33,8.42c-0.06,1.36-1.17,2.43-2.53,2.43h-0.09l-4.6,92.37c-0.07,1.34-1.18,2.4-2.53,2.4h-9.64
				c-1.4,0-2.53-1.13-2.53-2.53v-15.8l-5.41-0.18c-1.36-0.05-2.44-1.16-2.44-2.53v-35.67l-5.3-0.36c-1.33-0.09-2.35-1.19-2.35-2.53
				v-34.7l-5.07-0.55c-1.29-0.14-2.26-1.22-2.26-2.51V95.28c-0.18-0.35-0.29-0.75-0.29-1.17v-2.03l-5.16-2.91
				c-0.79-0.45-1.29-1.29-1.29-2.2v-3.23l-19.21-2.79V198.3c0,1.4-1.14,2.53-2.53,2.53h-11.3c-1.4,0-2.53-1.13-2.53-2.53v-62.61
				c0-0.46,0.12-0.91,0.36-1.3c-0.23-0.39-0.36-0.83-0.36-1.31v-12.89c0-0.33,0.06-0.66,0.19-0.96l0.36-0.89v-9.09
				c0-0.41,0.1-0.81,0.29-1.18h-30.09c0.19,0.36,0.29,0.77,0.29,1.18v9.09l0.36,0.88c0.12,0.31,0.19,0.64,0.19,0.97v12.89
				c0,0.47-0.13,0.92-0.36,1.31c0.23,0.39,0.36,0.84,0.36,1.3v77.52c0,0.47-0.12,0.91-0.35,1.29l0.03,0.12
				c0.06,0.21,0.09,0.43,0.09,0.65v9.16c0,0.35-0.07,0.69-0.2,0.99l0.15,0.69c0.04,0.17,0.06,0.35,0.06,0.52v2.01
				c0,1.4-1.14,2.53-2.53,2.53h-7c-1.4,0-2.53-1.13-2.53-2.53v-9.35h-2.61c-1.4,0-2.53-1.14-2.53-2.53v-13.74
				c0-0.41,0.1-0.81,0.29-1.17l1.14-2.19h-6.68c-0.15,0-0.29-0.02-0.43-0.04c-0.47-0.08-11.54-2.09-25.4-12.09
				c-1.45-0.24-5.31-0.89-9.38-1.68c-0.04-0.01-0.08-0.02-0.12-0.02c-5.07-0.99-8.75-1.85-10.95-2.55
				c-4.84-1.6-8.87-4.12-10.27-5.05c-1.03-0.18-3.14-0.59-4.72-1.11c-1.6,0.11-5.83,0.27-8.89-0.93c-1.22,0.43-3.07,0.89-5.4,0.89
				c-2.31,0-4.16-0.46-5.39-0.89c-3.04,1.2-7.28,1.04-8.88,0.93c-1.6,0.53-3.74,0.94-4.76,1.12c-1.39,0.92-5.52,3.5-10.23,5.04
				c-2.2,0.71-5.89,1.57-10.96,2.56c-2.62,0.51-5.14,0.97-7.02,1.28c-1.07,0.2-1.93,0.34-2.46,0.43
				c-13.86,10.01-24.93,12.02-25.4,12.09c-0.15,0.03-0.29,0.04-0.44,0.04h-6.68l1.14,2.19c0.18,0.36,0.28,0.76,0.28,1.17v13.74
				c0,1.4-1.13,2.53-2.53,2.53h-2.63v20.47C16.41,245.8,11.49,250.72,5.45,250.72"/>
		</g>
	</g>
	<g>
		<defs>
			<rect id="SVGID_00000048492199355621641530000010558551343567319689_" x="-2.21" y="246.23" width="1369.33" height="4.67"/>
		</defs>
		<clipPath id="SVGID_00000021813470045907543180000018352562024426948281_">
			<use xlink:href="#SVGID_00000048492199355621641530000010558551343567319689_"  style="overflow:visible;"/>
		</clipPath>
		<g style="clip-path:url(#SVGID_00000021813470045907543180000018352562024426948281_);">
			<path class="st2" d="M0.93,248.74h1364.15"/>
		</g>
	</g>
</g>
</svg>
