<svg xmlns="http://www.w3.org/2000/svg" xmlns:xlink="http://www.w3.org/1999/xlink" width="135" zoomAndPan="magnify" viewBox="0 0 101.25 72.749998" height="97" preserveAspectRatio="xMidYMid meet" version="1.0"><defs><g/><clipPath id="7c6fb87209"><path d="M 5.886719 27.597656 L 94.242188 27.597656 L 94.242188 40.203125 L 5.886719 40.203125 Z M 5.886719 27.597656 " clip-rule="nonzero"/></clipPath></defs><g fill="#b50000" fill-opacity="1"><g transform="translate(15.774712, 47.553773)"><g><path d="M 1 0 L 1 -0.328125 C 1.957031 -0.328125 2.648438 -0.613281 3.078125 -1.1875 C 3.515625 -1.769531 3.789062 -2.71875 3.90625 -4.03125 C 4.019531 -5.34375 4.078125 -7.09375 4.078125 -9.28125 L 4.078125 -24.09375 C 4.078125 -26.300781 4.019531 -28.054688 3.90625 -29.359375 C 3.789062 -30.660156 3.515625 -31.597656 3.078125 -32.171875 C 2.648438 -32.753906 1.957031 -33.046875 1 -33.046875 L 1 -33.375 L 5 -33.375 C 6.226562 -33.375 7.347656 -33.425781 8.359375 -33.53125 C 9.367188 -33.644531 10.390625 -33.757812 11.421875 -33.875 C 12.460938 -33.988281 13.628906 -34.046875 14.921875 -34.046875 C 17.296875 -34.046875 19.304688 -33.640625 20.953125 -32.828125 C 22.597656 -32.015625 23.847656 -30.90625 24.703125 -29.5 C 25.566406 -28.101562 26 -26.492188 26 -24.671875 C 26 -23.148438 25.601562 -21.722656 24.8125 -20.390625 C 24.019531 -19.054688 22.910156 -17.984375 21.484375 -17.171875 C 20.066406 -16.359375 18.390625 -15.953125 16.453125 -15.953125 C 15.671875 -15.953125 14.945312 -16.054688 14.28125 -16.265625 C 13.613281 -16.484375 13.003906 -16.734375 12.453125 -17.015625 C 11.910156 -17.304688 11.414062 -17.554688 10.96875 -17.765625 C 10.53125 -17.984375 10.132812 -18.09375 9.78125 -18.09375 C 9.582031 -18.09375 9.367188 -18.039062 9.140625 -17.9375 C 8.921875 -17.832031 8.8125 -17.59375 8.8125 -17.21875 C 8.8125 -16.800781 9.054688 -16.425781 9.546875 -16.09375 C 10.035156 -15.757812 10.664062 -15.421875 11.4375 -15.078125 C 12.21875 -14.742188 13.050781 -14.378906 13.9375 -13.984375 C 14.832031 -13.585938 15.691406 -13.097656 16.515625 -12.515625 C 17.335938 -11.929688 18.019531 -11.21875 18.5625 -10.375 C 19.226562 -9.351562 19.914062 -8.257812 20.625 -7.09375 C 21.332031 -5.925781 22.082031 -4.828125 22.875 -3.796875 C 23.664062 -2.773438 24.492188 -1.941406 25.359375 -1.296875 C 26.234375 -0.648438 27.148438 -0.328125 28.109375 -0.328125 L 28.109375 0 L 23 0 C 22.613281 0 22.238281 -0.15625 21.875 -0.46875 C 21.507812 -0.78125 21.054688 -1.304688 20.515625 -2.046875 C 19.984375 -2.796875 19.300781 -3.816406 18.46875 -5.109375 C 17.632812 -6.398438 16.5625 -8.035156 15.25 -10.015625 C 14.445312 -11.234375 13.644531 -12.195312 12.84375 -12.90625 C 12.039062 -13.625 11.3125 -14.195312 10.65625 -14.625 C 10 -15.0625 9.472656 -15.472656 9.078125 -15.859375 C 8.679688 -16.253906 8.484375 -16.726562 8.484375 -17.28125 C 8.484375 -17.6875 8.601562 -17.976562 8.84375 -18.15625 C 9.09375 -18.332031 9.359375 -18.421875 9.640625 -18.421875 C 10.128906 -18.421875 10.609375 -18.328125 11.078125 -18.140625 C 11.546875 -17.953125 12.03125 -17.726562 12.53125 -17.46875 C 13.03125 -17.21875 13.578125 -16.992188 14.171875 -16.796875 C 14.773438 -16.609375 15.46875 -16.515625 16.25 -16.515625 C 17.300781 -16.515625 18.25 -16.75 19.09375 -17.21875 C 19.9375 -17.6875 20.65625 -18.300781 21.25 -19.0625 C 21.851562 -19.832031 22.316406 -20.703125 22.640625 -21.671875 C 22.960938 -22.640625 23.125 -23.625 23.125 -24.625 C 23.125 -26.476562 22.710938 -28.070312 21.890625 -29.40625 C 21.066406 -30.738281 19.898438 -31.765625 18.390625 -32.484375 C 16.878906 -33.210938 15.085938 -33.578125 13.015625 -33.578125 C 11.796875 -33.578125 10.726562 -33.492188 9.8125 -33.328125 C 8.894531 -33.160156 7.925781 -32.882812 6.90625 -32.5 L 6.90625 -9.28125 C 6.90625 -7.09375 6.960938 -5.34375 7.078125 -4.03125 C 7.191406 -2.71875 7.460938 -1.769531 7.890625 -1.1875 C 8.328125 -0.613281 9.023438 -0.328125 9.984375 -0.328125 L 9.984375 0 Z M 1 0 "/></g></g></g><g fill="#b50000" fill-opacity="1"><g transform="translate(44.878011, 47.553773)"><g/></g></g><g fill="#b50000" fill-opacity="1"><g transform="translate(56.559376, 47.553773)"><g><path d="M 16.859375 0.671875 C 14.785156 0.671875 12.847656 0.242188 11.046875 -0.609375 C 9.242188 -1.472656 7.660156 -2.6875 6.296875 -4.25 C 4.941406 -5.820312 3.882812 -7.664062 3.125 -9.78125 C 2.375 -11.894531 2 -14.195312 2 -16.6875 C 2 -19.195312 2.375 -21.503906 3.125 -23.609375 C 3.882812 -25.710938 4.941406 -27.546875 6.296875 -29.109375 C 7.660156 -30.679688 9.242188 -31.894531 11.046875 -32.75 C 12.847656 -33.613281 14.785156 -34.046875 16.859375 -34.046875 C 18.765625 -34.046875 20.375 -33.828125 21.6875 -33.390625 C 23 -32.953125 24.050781 -32.382812 24.84375 -31.6875 C 25.632812 -30.988281 26.207031 -30.226562 26.5625 -29.40625 C 26.914062 -28.582031 27.09375 -27.789062 27.09375 -27.03125 C 27.09375 -25.875 26.863281 -24.828125 26.40625 -23.890625 C 25.957031 -22.960938 25.375 -22.117188 24.65625 -21.359375 C 23.945312 -20.597656 23.1875 -19.890625 22.375 -19.234375 C 21.5625 -18.578125 20.800781 -17.945312 20.09375 -17.34375 C 19.382812 -16.75 18.800781 -16.148438 18.34375 -15.546875 C 17.882812 -14.953125 17.65625 -14.320312 17.65625 -13.65625 C 17.65625 -13.132812 17.738281 -12.710938 17.90625 -12.390625 C 18.070312 -12.078125 18.320312 -11.773438 18.65625 -11.484375 C 18.050781 -11.347656 17.53125 -11.4375 17.09375 -11.75 C 16.664062 -12.0625 16.332031 -12.484375 16.09375 -13.015625 C 15.863281 -13.546875 15.75 -14.066406 15.75 -14.578125 C 15.75 -15.554688 15.976562 -16.441406 16.4375 -17.234375 C 16.894531 -18.023438 17.476562 -18.753906 18.1875 -19.421875 C 18.894531 -20.085938 19.644531 -20.722656 20.4375 -21.328125 C 21.226562 -21.929688 21.976562 -22.535156 22.6875 -23.140625 C 23.40625 -23.753906 23.988281 -24.398438 24.4375 -25.078125 C 24.894531 -25.753906 25.125 -26.492188 25.125 -27.296875 C 25.125 -29.273438 24.441406 -30.828125 23.078125 -31.953125 C 21.710938 -33.078125 19.640625 -33.640625 16.859375 -33.640625 C 15.117188 -33.640625 13.523438 -33.21875 12.078125 -32.375 C 10.628906 -31.53125 9.375 -30.34375 8.3125 -28.8125 C 7.257812 -27.289062 6.441406 -25.5 5.859375 -23.4375 C 5.285156 -21.382812 5 -19.132812 5 -16.6875 C 5 -14.257812 5.3125 -12.007812 5.9375 -9.9375 C 6.5625 -7.875 7.414062 -6.078125 8.5 -4.546875 C 9.59375 -3.023438 10.859375 -1.84375 12.296875 -1 C 13.734375 -0.15625 15.253906 0.265625 16.859375 0.265625 C 18.347656 0.265625 19.625 0.078125 20.6875 -0.296875 C 21.757812 -0.679688 22.660156 -1.148438 23.390625 -1.703125 C 24.128906 -2.253906 24.710938 -2.804688 25.140625 -3.359375 C 25.578125 -3.921875 25.890625 -4.390625 26.078125 -4.765625 C 26.265625 -5.148438 26.359375 -5.34375 26.359375 -5.34375 L 26.734375 -5.34375 L 26.734375 -0.875 C 25.398438 -0.445312 23.953125 -0.0820312 22.390625 0.21875 C 20.835938 0.519531 18.992188 0.671875 16.859375 0.671875 Z M 16.859375 0.671875 "/></g></g></g><path stroke-linecap="butt" transform="matrix(0, 0.744485, -0.744485, 0, 51.178943, 7.554401)" fill="none" stroke-linejoin="miter" d="M 0.00038547 1.499617 L 62.784956 1.499617 " stroke="#b50000" stroke-width="3" stroke-opacity="1" stroke-miterlimit="4"/><g clip-path="url(#7c6fb87209)"><path fill="#000000" d="M 5.886719 27.597656 L 94.21875 27.597656 L 94.21875 40.203125 L 5.886719 40.203125 Z M 5.886719 27.597656 " fill-opacity="1" fill-rule="nonzero"/></g><g fill="#b50000" fill-opacity="1"><g transform="translate(9.326834, 36.316955)"><g><path d="M 5.71875 0 L 4.171875 -2.171875 C 3.992188 -2.148438 3.8125 -2.140625 3.625 -2.140625 L 1.8125 -2.140625 L 1.8125 0 L 1.09375 0 L 1.09375 -6.765625 L 3.625 -6.765625 C 4.488281 -6.765625 5.164062 -6.554688 5.65625 -6.140625 C 6.144531 -5.722656 6.390625 -5.15625 6.390625 -4.4375 C 6.390625 -3.914062 6.253906 -3.472656 5.984375 -3.109375 C 5.722656 -2.742188 5.34375 -2.476562 4.84375 -2.3125 L 6.5 0 Z M 3.609375 -2.75 C 4.273438 -2.75 4.785156 -2.894531 5.140625 -3.1875 C 5.492188 -3.488281 5.671875 -3.90625 5.671875 -4.4375 C 5.671875 -4.988281 5.492188 -5.410156 5.140625 -5.703125 C 4.785156 -5.992188 4.273438 -6.140625 3.609375 -6.140625 L 1.8125 -6.140625 L 1.8125 -2.75 Z M 3.609375 -2.75 "/></g></g></g><g fill="#b50000" fill-opacity="1"><g transform="translate(16.311032, 36.316955)"><g><path d="M 5.875 -0.625 L 5.875 0 L 1.09375 0 L 1.09375 -6.765625 L 5.734375 -6.765625 L 5.734375 -6.140625 L 1.8125 -6.140625 L 1.8125 -3.734375 L 5.3125 -3.734375 L 5.3125 -3.125 L 1.8125 -3.125 L 1.8125 -0.625 Z M 5.875 -0.625 "/></g></g></g><g fill="#b50000" fill-opacity="1"><g transform="translate(22.773596, 36.316955)"><g><path d="M 5.359375 -3.484375 C 5.804688 -3.390625 6.148438 -3.195312 6.390625 -2.90625 C 6.628906 -2.625 6.75 -2.257812 6.75 -1.8125 C 6.75 -1.226562 6.535156 -0.78125 6.109375 -0.46875 C 5.679688 -0.15625 5.046875 0 4.203125 0 L 1.09375 0 L 1.09375 -6.765625 L 4.015625 -6.765625 C 4.765625 -6.765625 5.347656 -6.613281 5.765625 -6.3125 C 6.179688 -6.007812 6.390625 -5.578125 6.390625 -5.015625 C 6.390625 -4.648438 6.296875 -4.332031 6.109375 -4.0625 C 5.929688 -3.800781 5.679688 -3.609375 5.359375 -3.484375 Z M 1.8125 -6.171875 L 1.8125 -3.71875 L 3.96875 -3.71875 C 4.519531 -3.71875 4.941406 -3.820312 5.234375 -4.03125 C 5.523438 -4.238281 5.671875 -4.539062 5.671875 -4.9375 C 5.671875 -5.34375 5.523438 -5.648438 5.234375 -5.859375 C 4.941406 -6.066406 4.519531 -6.171875 3.96875 -6.171875 Z M 4.203125 -0.59375 C 4.804688 -0.59375 5.257812 -0.691406 5.5625 -0.890625 C 5.875 -1.097656 6.03125 -1.421875 6.03125 -1.859375 C 6.03125 -2.703125 5.421875 -3.125 4.203125 -3.125 L 1.8125 -3.125 L 1.8125 -0.59375 Z M 4.203125 -0.59375 "/></g></g></g><g fill="#b50000" fill-opacity="1"><g transform="translate(30.057259, 36.316955)"><g><path d="M 5.875 -0.625 L 5.875 0 L 1.09375 0 L 1.09375 -6.765625 L 5.734375 -6.765625 L 5.734375 -6.140625 L 1.8125 -6.140625 L 1.8125 -3.734375 L 5.3125 -3.734375 L 5.3125 -3.125 L 1.8125 -3.125 L 1.8125 -0.625 Z M 5.875 -0.625 "/></g></g></g><g fill="#b50000" fill-opacity="1"><g transform="translate(36.519823, 36.316955)"><g><path d="M 1.09375 -6.765625 L 1.8125 -6.765625 L 1.8125 -0.625 L 5.59375 -0.625 L 5.59375 0 L 1.09375 0 Z M 1.09375 -6.765625 "/></g></g></g><g fill="#b50000" fill-opacity="1"><g transform="translate(42.209584, 36.316955)"><g/></g></g><g fill="#b50000" fill-opacity="1"><g transform="translate(44.740517, 36.316955)"><g><path d="M 4.03125 0.0625 C 3.363281 0.0625 2.757812 -0.0820312 2.21875 -0.375 C 1.6875 -0.675781 1.265625 -1.085938 0.953125 -1.609375 C 0.648438 -2.140625 0.5 -2.726562 0.5 -3.375 C 0.5 -4.03125 0.648438 -4.617188 0.953125 -5.140625 C 1.265625 -5.660156 1.691406 -6.066406 2.234375 -6.359375 C 2.773438 -6.660156 3.378906 -6.8125 4.046875 -6.8125 C 4.546875 -6.8125 5.007812 -6.726562 5.4375 -6.5625 C 5.863281 -6.394531 6.222656 -6.148438 6.515625 -5.828125 L 6.0625 -5.375 C 5.53125 -5.914062 4.863281 -6.1875 4.0625 -6.1875 C 3.53125 -6.1875 3.046875 -6.0625 2.609375 -5.8125 C 2.171875 -5.570312 1.828125 -5.238281 1.578125 -4.8125 C 1.328125 -4.382812 1.203125 -3.90625 1.203125 -3.375 C 1.203125 -2.851562 1.328125 -2.378906 1.578125 -1.953125 C 1.828125 -1.523438 2.171875 -1.1875 2.609375 -0.9375 C 3.046875 -0.695312 3.53125 -0.578125 4.0625 -0.578125 C 4.875 -0.578125 5.539062 -0.847656 6.0625 -1.390625 L 6.515625 -0.9375 C 6.222656 -0.613281 5.863281 -0.363281 5.4375 -0.1875 C 5.007812 -0.0195312 4.539062 0.0625 4.03125 0.0625 Z M 4.03125 0.0625 "/></g></g></g><g fill="#b50000" fill-opacity="1"><g transform="translate(51.686083, 36.316955)"><g><path d="M 4.0625 0.0625 C 3.382812 0.0625 2.773438 -0.0859375 2.234375 -0.390625 C 1.691406 -0.691406 1.265625 -1.101562 0.953125 -1.625 C 0.648438 -2.144531 0.5 -2.726562 0.5 -3.375 C 0.5 -4.03125 0.648438 -4.617188 0.953125 -5.140625 C 1.265625 -5.660156 1.691406 -6.066406 2.234375 -6.359375 C 2.773438 -6.660156 3.382812 -6.8125 4.0625 -6.8125 C 4.726562 -6.8125 5.328125 -6.660156 5.859375 -6.359375 C 6.398438 -6.066406 6.820312 -5.660156 7.125 -5.140625 C 7.4375 -4.617188 7.59375 -4.03125 7.59375 -3.375 C 7.59375 -2.726562 7.4375 -2.140625 7.125 -1.609375 C 6.820312 -1.085938 6.398438 -0.675781 5.859375 -0.375 C 5.328125 -0.0820312 4.726562 0.0625 4.0625 0.0625 Z M 4.0625 -0.578125 C 4.59375 -0.578125 5.070312 -0.695312 5.5 -0.9375 C 5.9375 -1.175781 6.273438 -1.507812 6.515625 -1.9375 C 6.765625 -2.375 6.890625 -2.851562 6.890625 -3.375 C 6.890625 -3.90625 6.765625 -4.382812 6.515625 -4.8125 C 6.273438 -5.238281 5.9375 -5.570312 5.5 -5.8125 C 5.070312 -6.0625 4.59375 -6.1875 4.0625 -6.1875 C 3.519531 -6.1875 3.03125 -6.0625 2.59375 -5.8125 C 2.164062 -5.570312 1.828125 -5.238281 1.578125 -4.8125 C 1.328125 -4.382812 1.203125 -3.90625 1.203125 -3.375 C 1.203125 -2.851562 1.328125 -2.375 1.578125 -1.9375 C 1.828125 -1.507812 2.164062 -1.175781 2.59375 -0.9375 C 3.03125 -0.695312 3.519531 -0.578125 4.0625 -0.578125 Z M 4.0625 -0.578125 "/></g></g></g><g fill="#b50000" fill-opacity="1"><g transform="translate(59.790847, 36.316955)"><g><path d="M 3.828125 0.0625 C 2.953125 0.0625 2.269531 -0.1875 1.78125 -0.6875 C 1.289062 -1.195312 1.046875 -1.929688 1.046875 -2.890625 L 1.046875 -6.765625 L 1.75 -6.765625 L 1.75 -2.921875 C 1.75 -2.128906 1.925781 -1.539062 2.28125 -1.15625 C 2.632812 -0.769531 3.148438 -0.578125 3.828125 -0.578125 C 4.503906 -0.578125 5.019531 -0.769531 5.375 -1.15625 C 5.726562 -1.539062 5.90625 -2.128906 5.90625 -2.921875 L 5.90625 -6.765625 L 6.59375 -6.765625 L 6.59375 -2.890625 C 6.59375 -1.929688 6.347656 -1.195312 5.859375 -0.6875 C 5.378906 -0.1875 4.703125 0.0625 3.828125 0.0625 Z M 3.828125 0.0625 "/></g></g></g><g fill="#b50000" fill-opacity="1"><g transform="translate(67.441597, 36.316955)"><g><path d="M 5.71875 0 L 4.171875 -2.171875 C 3.992188 -2.148438 3.8125 -2.140625 3.625 -2.140625 L 1.8125 -2.140625 L 1.8125 0 L 1.09375 0 L 1.09375 -6.765625 L 3.625 -6.765625 C 4.488281 -6.765625 5.164062 -6.554688 5.65625 -6.140625 C 6.144531 -5.722656 6.390625 -5.15625 6.390625 -4.4375 C 6.390625 -3.914062 6.253906 -3.472656 5.984375 -3.109375 C 5.722656 -2.742188 5.34375 -2.476562 4.84375 -2.3125 L 6.5 0 Z M 3.609375 -2.75 C 4.273438 -2.75 4.785156 -2.894531 5.140625 -3.1875 C 5.492188 -3.488281 5.671875 -3.90625 5.671875 -4.4375 C 5.671875 -4.988281 5.492188 -5.410156 5.140625 -5.703125 C 4.785156 -5.992188 4.273438 -6.140625 3.609375 -6.140625 L 1.8125 -6.140625 L 1.8125 -2.75 Z M 3.609375 -2.75 "/></g></g></g><g fill="#b50000" fill-opacity="1"><g transform="translate(74.425794, 36.316955)"><g><path d="M 1.09375 -6.765625 L 1.8125 -6.765625 L 1.8125 0 L 1.09375 0 Z M 1.09375 -6.765625 "/></g></g></g><g fill="#b50000" fill-opacity="1"><g transform="translate(77.343122, 36.316955)"><g><path d="M 5.875 -0.625 L 5.875 0 L 1.09375 0 L 1.09375 -6.765625 L 5.734375 -6.765625 L 5.734375 -6.140625 L 1.8125 -6.140625 L 1.8125 -3.734375 L 5.3125 -3.734375 L 5.3125 -3.125 L 1.8125 -3.125 L 1.8125 -0.625 Z M 5.875 -0.625 "/></g></g></g><g fill="#b50000" fill-opacity="1"><g transform="translate(83.805685, 36.316955)"><g><path d="M 5.71875 0 L 4.171875 -2.171875 C 3.992188 -2.148438 3.8125 -2.140625 3.625 -2.140625 L 1.8125 -2.140625 L 1.8125 0 L 1.09375 0 L 1.09375 -6.765625 L 3.625 -6.765625 C 4.488281 -6.765625 5.164062 -6.554688 5.65625 -6.140625 C 6.144531 -5.722656 6.390625 -5.15625 6.390625 -4.4375 C 6.390625 -3.914062 6.253906 -3.472656 5.984375 -3.109375 C 5.722656 -2.742188 5.34375 -2.476562 4.84375 -2.3125 L 6.5 0 Z M 3.609375 -2.75 C 4.273438 -2.75 4.785156 -2.894531 5.140625 -3.1875 C 5.492188 -3.488281 5.671875 -3.90625 5.671875 -4.4375 C 5.671875 -4.988281 5.492188 -5.410156 5.140625 -5.703125 C 4.785156 -5.992188 4.273438 -6.140625 3.609375 -6.140625 L 1.8125 -6.140625 L 1.8125 -2.75 Z M 3.609375 -2.75 "/></g></g></g></svg>